<svg width="64" height="64" viewBox="0 0 64 64" fill="none" xmlns="http://www.w3.org/2000/svg">
<path fill-rule="evenodd" clip-rule="evenodd" d="M30.3828 6.47319C31.3686 5.84227 32.6314 5.84227 33.6172 6.47319L58.6172 22.4732C60.0127 23.3663 60.42 25.2216 59.5268 26.6172C58.6337 28.0127 56.7784 28.4199 55.3828 27.5268L53 26.0018V50C53 54.4183 49.4183 58 45 58H19C14.5817 58 11 54.4183 11 50V26.0018L8.61717 27.5268C7.22165 28.4199 5.36632 28.0127 4.47319 26.6172C3.58006 25.2216 3.98732 23.3663 5.38284 22.4732L30.3828 6.47319ZM22 35.5C22 36.9783 22.5832 38.3203 23.532 39.3086L30.5672 46.5294C31.3524 47.3353 32.6475 47.3352 33.4325 46.5292L40.3257 39.4515C41.3582 38.4517 42 37.0508 42 35.5C42 32.4624 39.5376 30 36.5 30C34.6398 30 32.9954 32.0484 32 33.4619C31.0046 32.0484 29.3602 30 27.5 30C24.4624 30 22 32.4624 22 35.5Z" fill="url(#paint0_linear_741_541)" stroke="#35291B" stroke-width="2.5" stroke-linecap="round" stroke-linejoin="round"/>
<defs>
<linearGradient id="paint0_linear_741_541" x1="3.99963" y1="58" x2="55.3935" y2="1.78798" gradientUnits="userSpaceOnUse">
<stop stop-color="#B5E48C"/>
<stop offset="1" stop-color="#FFD364"/>
</linearGradient>
</defs>
</svg>
