<svg width="32" height="32" viewBox="0 0 32 32" fill="none" xmlns="http://www.w3.org/2000/svg">
<path d="M21.5879 19.2831L21.5879 20.0331H21.5879L21.5879 19.2831ZM23.6348 9.32703L24.2862 9.6988L24.2862 9.6988L23.6348 9.32703ZM22.982 10.4708L22.3306 10.0991L22.3306 10.0991L22.982 10.4708ZM22.982 14.1457L23.6334 13.7739L23.6334 13.7739L22.982 14.1457ZM23.6348 15.2895L22.9834 15.6613L22.9834 15.6613L23.6348 15.2895ZM8 5.33337L8 4.58337C7.58579 4.58337 7.25 4.91916 7.25 5.33337L8 5.33337ZM7.25 26.6667C7.25 27.0809 7.58579 27.4167 8 27.4167C8.41421 27.4167 8.75 27.0809 8.75 26.6667L7.25 26.6667ZM21.5879 5.33337L21.5879 6.08337L21.5879 5.33337ZM21.5879 18.5331H8V20.0331H21.5879V18.5331ZM22.9834 8.95526L22.3306 10.0991L23.6334 10.8426L24.2862 9.6988L22.9834 8.95526ZM22.3306 14.5175L22.9834 15.6613L24.2862 14.9177L23.6334 13.7739L22.3306 14.5175ZM7.25 19.2831L7.25 26.6667L8.75 26.6667L8.75 19.2831L7.25 19.2831ZM22.3306 10.0991C21.5567 11.4551 21.5567 13.1615 22.3306 14.5175L23.6334 13.7739C23.1224 12.8787 23.1224 11.7378 23.6334 10.8426L22.3306 10.0991ZM21.5879 20.0331C22.8568 20.0331 23.8524 19.2713 24.3596 18.2818C24.8658 17.294 24.9188 16.0261 24.2862 14.9177L22.9834 15.6613C23.3453 16.2953 23.3186 17.0242 23.0247 17.5976C22.7317 18.1693 22.2065 18.5331 21.5879 18.5331L21.5879 20.0331ZM24.2862 9.6988C24.9188 8.59041 24.8658 7.3225 24.3596 6.3347C23.8524 5.34518 22.8568 4.58337 21.5879 4.58337L21.5879 6.08337C22.2065 6.08337 22.7317 6.44719 23.0247 7.01888C23.3186 7.5923 23.3453 8.32122 22.9834 8.95526L24.2862 9.6988ZM8.75 19.2831L8.75 5.33337L7.25 5.33337L7.25 19.2831L8.75 19.2831ZM8 6.08337L21.5879 6.08337L21.5879 4.58337L8 4.58337L8 6.08337Z" fill="#140A01"/>
</svg>
