<svg width="64" height="64" viewBox="0 0 64 64" fill="none" xmlns="http://www.w3.org/2000/svg">
<path d="M51.3415 30.7723L45.3415 25.5223C45.1245 25.3324 45 25.0581 45 24.7697V22.2235C45 21.6712 45.4477 21.2235 46 21.2235H52C52.5523 21.2235 53 21.6712 53 22.2235V30.0197C53 30.8788 51.9881 31.338 51.3415 30.7723Z" fill="#35291B"/>
<path d="M37 35.2235C37 34.1189 37.8954 33.2235 39 33.2235H43C44.1046 33.2235 45 34.1189 45 35.2235V39.2235C45 40.328 44.1046 41.2235 43 41.2235H39C37.8954 41.2235 37 40.328 37 39.2235V35.2235Z" fill="#CFBBAF"/>
<path d="M23 30.2235C23 29.6712 23.4477 29.2235 24 29.2235H26C26.5523 29.2235 27 29.6712 27 30.2235V32.2235C27 32.7757 26.5523 33.2235 26 33.2235H24C23.4477 33.2235 23 32.7757 23 32.2235V30.2235Z" fill="#CFBBAF"/>
<path fill-rule="evenodd" clip-rule="evenodd" d="M33 19.5747L58.3064 43.9438C58.7042 44.3269 59.3372 44.3149 59.7203 43.9171C60.1034 43.5193 60.0915 42.8862 59.6936 42.5031L34.0809 17.839C32.9192 16.7203 31.0808 16.7203 29.9191 17.839L4.30636 42.5031C3.90854 42.8862 3.89659 43.5193 4.27968 43.9171C4.66277 44.3149 5.29582 44.3269 5.69364 43.9438L31 19.5747V23.2235C31 23.383 31.0373 23.5337 31.1038 23.6675C30.738 23.8486 30.4198 24.1477 30.2111 24.5651L29.4279 26.1316C29.0429 26.9016 29.1938 27.8315 29.8025 28.4402L30.5858 29.2235C31.3668 30.0045 32.6332 30.0045 33.4142 29.2235L34.1975 28.4402C34.8062 27.8315 34.9571 26.9016 34.5721 26.1316L33.7889 24.5651C33.5802 24.1477 33.262 23.8486 32.8962 23.6675C32.9627 23.5337 33 23.383 33 23.2235V19.5747ZM44 22.2235C44 21.1189 44.8954 20.2235 46 20.2235H52C53.1046 20.2235 54 21.1189 54 22.2235V30.0197C54 31.738 51.9762 32.6564 50.683 31.5248L44.683 26.2748C44.249 25.8951 44 25.3464 44 24.7697V22.2235ZM52 22.2235H46V24.7697L52 30.0197V22.2235ZM32 25.4595L31.2168 27.026L32 27.8092L32.7832 27.026L32 25.4595ZM22 30.2235C22 29.1189 22.8954 28.2235 24 28.2235H26C27.1046 28.2235 28 29.1189 28 30.2235V32.2235C28 32.2801 27.9976 32.3362 27.993 32.3917C29.1619 32.8016 30 33.9146 30 35.2235V39.2235C30 39.5741 29.9398 39.9107 29.8293 40.2235H36.1707C36.0602 39.9107 36 39.5741 36 39.2235V35.2235C36 33.5666 37.3431 32.2235 39 32.2235H43C44.6569 32.2235 46 33.5666 46 35.2235V39.2235C46 39.5741 45.9398 39.9107 45.8293 40.2235H51C51.5523 40.2235 52 40.6712 52 41.2235C52 41.7757 51.5523 42.2235 51 42.2235H13C12.4477 42.2235 12 41.7757 12 41.2235C12 40.6712 12.4477 40.2235 13 40.2235H18.1707C18.0602 39.9107 18 39.5741 18 39.2235V35.2235C18 33.5666 19.3431 32.2235 21 32.2235H22V30.2235ZM21 34.2235C20.4477 34.2235 20 34.6712 20 35.2235V39.2235C20 39.7757 20.4477 40.2235 21 40.2235H27C27.5523 40.2235 28 39.7757 28 39.2235V35.2235C28 34.6712 27.5523 34.2235 27 34.2235H21ZM43 40.2235C43.5523 40.2235 44 39.7757 44 39.2235V35.2235C44 34.6712 43.5523 34.2235 43 34.2235H39C38.4477 34.2235 38 34.6712 38 35.2235V39.2235C38 39.7757 38.4477 40.2235 39 40.2235H43ZM26 30.2235H24V32.2235H26V30.2235Z" fill="#35291B"/>
</svg>
