<svg width="64" height="64" viewBox="0 0 64 64" fill="none" xmlns="http://www.w3.org/2000/svg">
<path d="M28 18.5001C28 18.2239 28.2239 18.0001 28.5 18.0001H29.5C29.7761 18.0001 30 18.2239 30 18.5001V19.5001C30 19.7762 29.7761 20.0001 29.5 20.0001H28.5C28.2239 20.0001 28 19.7762 28 19.5001V18.5001Z" fill="#35291B"/>
<path fill-rule="evenodd" clip-rule="evenodd" d="M27.5 18.5001C27.5 17.9478 27.9477 17.5001 28.5 17.5001H29.5C30.0523 17.5001 30.5 17.9478 30.5 18.5001V19.5001C30.5 20.0524 30.0523 20.5001 29.5 20.5001H28.5C27.9477 20.5001 27.5 20.0524 27.5 19.5001V18.5001ZM29.5 18.5001H28.5V19.5001H29.5V18.5001Z" fill="#35291B"/>
<path d="M32 18.5001C32 18.2239 32.2239 18.0001 32.5 18.0001H33.5C33.7761 18.0001 34 18.2239 34 18.5001V19.5001C34 19.7762 33.7761 20.0001 33.5 20.0001H32.5C32.2239 20.0001 32 19.7762 32 19.5001V18.5001Z" fill="#35291B"/>
<path fill-rule="evenodd" clip-rule="evenodd" d="M31.5 18.5001C31.5 17.9478 31.9477 17.5001 32.5 17.5001H33.5C34.0523 17.5001 34.5 17.9478 34.5 18.5001V19.5001C34.5 20.0524 34.0523 20.5001 33.5 20.5001H32.5C31.9477 20.5001 31.5 20.0524 31.5 19.5001V18.5001ZM33.5 18.5001H32.5V19.5001H33.5V18.5001Z" fill="#35291B"/>
<path d="M28 22.5001C28 22.2239 28.2239 22.0001 28.5 22.0001H29.5C29.7761 22.0001 30 22.2239 30 22.5001V23.5001C30 23.7762 29.7761 24.0001 29.5 24.0001H28.5C28.2239 24.0001 28 23.7762 28 23.5001V22.5001Z" fill="#35291B"/>
<path fill-rule="evenodd" clip-rule="evenodd" d="M27.5 22.5001C27.5 21.9478 27.9477 21.5001 28.5 21.5001H29.5C30.0523 21.5001 30.5 21.9478 30.5 22.5001V23.5001C30.5 24.0524 30.0523 24.5001 29.5 24.5001H28.5C27.9477 24.5001 27.5 24.0524 27.5 23.5001V22.5001ZM29.5 22.5001H28.5V23.5001H29.5V22.5001Z" fill="#35291B"/>
<path d="M32 22.5001C32 22.2239 32.2239 22.0001 32.5 22.0001H33.5C33.7761 22.0001 34 22.2239 34 22.5001V23.5001C34 23.7762 33.7761 24.0001 33.5 24.0001H32.5C32.2239 24.0001 32 23.7762 32 23.5001V22.5001Z" fill="#35291B"/>
<path fill-rule="evenodd" clip-rule="evenodd" d="M31.5 22.5001C31.5 21.9478 31.9477 21.5001 32.5 21.5001H33.5C34.0523 21.5001 34.5 21.9478 34.5 22.5001V23.5001C34.5 24.0524 34.0523 24.5001 33.5 24.5001H32.5C31.9477 24.5001 31.5 24.0524 31.5 23.5001V22.5001ZM33.5 22.5001H32.5V23.5001H33.5V22.5001Z" fill="#35291B"/>
<path d="M40.331 16.498L38.331 14.698C38.1203 14.5084 38 14.2382 38 13.9547V13.0001C38 12.4478 38.4477 12.0001 39 12.0001H41C41.5523 12.0001 42 12.4478 42 13.0001V15.7547C42 16.6205 40.9746 17.0772 40.331 16.498Z" fill="#35291B"/>
<path fill-rule="evenodd" clip-rule="evenodd" d="M31.6823 12.0048C31.2981 11.6462 30.7019 11.6462 30.3177 12.0048L16.6823 24.7311C16.2786 25.108 15.6458 25.0861 15.2689 24.6824C14.8921 24.2786 14.9139 23.6458 15.3177 23.269L28.9531 10.5427C30.1057 9.46689 31.8943 9.4669 33.047 10.5427L46.6823 23.269C47.0861 23.6458 47.1079 24.2786 46.7311 24.6824C46.3542 25.0861 45.7214 25.108 45.3177 24.7311L31.6823 12.0048Z" fill="#35291B"/>
<path fill-rule="evenodd" clip-rule="evenodd" d="M20 20.0001C20.5523 20.0001 21 20.4478 21 21.0001V46.0001C21 46.5524 21.4477 47.0001 22 47.0001H40C40.5523 47.0001 41 46.5524 41 46.0001V21.0001C41 20.4478 41.4477 20.0001 42 20.0001C42.5523 20.0001 43 20.4478 43 21.0001V46.0001C43 47.6569 41.6569 49.0001 40 49.0001H22C20.3431 49.0001 19 47.6569 19 46.0001V21.0001C19 20.4478 19.4477 20.0001 20 20.0001Z" fill="#35291B"/>
<path d="M28 30.0001C28 28.8955 28.8954 28.0001 30 28.0001H32C33.1046 28.0001 34 28.8955 34 30.0001V36.0001H28V30.0001Z" fill="#35291B"/>
<path fill-rule="evenodd" clip-rule="evenodd" d="M19 36.0001C19 35.4478 19.4477 35.0001 20 35.0001H42C42.5523 35.0001 43 35.4478 43 36.0001C43 36.5524 42.5523 37.0001 42 37.0001H20C19.4477 37.0001 19 36.5524 19 36.0001Z" fill="#35291B"/>
<path fill-rule="evenodd" clip-rule="evenodd" d="M37 35.0001C37.5523 35.0001 38 35.4478 38 36.0001V39.0001C38 40.1046 37.1046 41.0001 36 41.0001H34V43.0001C34 44.1046 33.1046 45.0001 32 45.0001H30V47.0001C30 47.5524 29.5523 48.0001 29 48.0001C28.4477 48.0001 28 47.5524 28 47.0001V45.0001C28 43.8955 28.8954 43.0001 30 43.0001H32V41.0001C32 39.8955 32.8954 39.0001 34 39.0001H36V36.0001C36 35.4478 36.4477 35.0001 37 35.0001Z" fill="#35291B"/>
</svg>
