<svg width="64" height="64" viewBox="0 0 64 64" fill="none" xmlns="http://www.w3.org/2000/svg">
<path fill-rule="evenodd" clip-rule="evenodd" d="M42 48C42 51.3137 44.6863 54 48 54C51.3137 54 54 51.3137 54 48C54 44.6863 51.3137 42 48 42C44.6863 42 42 44.6863 42 48ZM40 48C40 52.4183 43.5817 56 48 56C52.4183 56 56 52.4183 56 48C56 43.5817 52.4183 40 48 40C43.5817 40 40 43.5817 40 48Z" fill="#35291B"/>
<path fill-rule="evenodd" clip-rule="evenodd" d="M46 48C46 49.1046 46.8954 50 48 50C49.1046 50 50 49.1046 50 48C50 46.8955 49.1046 46 48 46C46.8954 46 46 46.8955 46 48ZM44 48C44 50.2092 45.7908 52 48 52C50.2091 52 52 50.2092 52 48C52 45.7909 50.2091 44 48 44C45.7908 44 44 45.7909 44 48Z" fill="#35291B"/>
<path fill-rule="evenodd" clip-rule="evenodd" d="M56 14L56 48L54 48L54 14L56 14Z" fill="#35291B"/>
<path fill-rule="evenodd" clip-rule="evenodd" d="M42 14L42 48L40 48L40 14L42 14Z" fill="#35291B"/>
<path fill-rule="evenodd" clip-rule="evenodd" d="M42 15C42 15.5523 41.5523 16 41 16L15 16C14.4477 16 14 15.5523 14 15C14 14.4477 14.4477 14 15 14L41 14C41.5523 14 42 14.4477 42 15Z" fill="#35291B"/>
<path fill-rule="evenodd" clip-rule="evenodd" d="M48 55C48 55.5523 47.5523 56 47 56L15 56C14.4477 56 14 55.5523 14 55C14 54.4477 14.4477 54 15 54L47 54C47.5523 54 48 54.4477 48 55Z" fill="#35291B"/>
<path fill-rule="evenodd" clip-rule="evenodd" d="M15 14C15.5523 14 16 14.4477 16 15L16 55C16 55.5523 15.5523 56 15 56C14.4477 56 14 55.5523 14 55L14 15C14 14.4477 14.4477 14 15 14Z" fill="#35291B"/>
<path fill-rule="evenodd" clip-rule="evenodd" d="M9.99999 18L14 18L14 20L9.99999 20L9.99999 18Z" fill="#35291B"/>
<path fill-rule="evenodd" clip-rule="evenodd" d="M7.99999 19C7.99999 19.5523 8.4477 20 8.99999 20C9.55227 20 9.99999 19.5523 9.99999 19C9.99999 18.4477 9.55227 18 8.99999 18C8.4477 18 7.99999 18.4477 7.99999 19ZM5.99999 19C5.99999 20.6569 7.34313 22 8.99999 22C10.6568 22 12 20.6569 12 19C12 17.3432 10.6568 16 8.99999 16C7.34313 16 5.99999 17.3432 5.99999 19Z" fill="#35291B"/>
<path fill-rule="evenodd" clip-rule="evenodd" d="M9.99999 26L14 26L14 28L9.99999 28L9.99999 26Z" fill="#35291B"/>
<path fill-rule="evenodd" clip-rule="evenodd" d="M7.99999 27C7.99999 27.5523 8.4477 28 8.99999 28C9.55227 28 9.99999 27.5523 9.99999 27C9.99999 26.4477 9.55227 26 8.99999 26C8.4477 26 7.99999 26.4477 7.99999 27ZM5.99999 27C5.99999 28.6569 7.34313 30 8.99999 30C10.6568 30 12 28.6569 12 27C12 25.3432 10.6568 24 8.99999 24C7.34313 24 5.99999 25.3432 5.99999 27Z" fill="#35291B"/>
<path fill-rule="evenodd" clip-rule="evenodd" d="M9.99999 34L14 34L14 36L9.99999 36L9.99999 34Z" fill="#35291B"/>
<path fill-rule="evenodd" clip-rule="evenodd" d="M7.99999 35C7.99999 35.5523 8.4477 36 8.99999 36C9.55227 36 9.99999 35.5523 9.99999 35C9.99999 34.4477 9.55227 34 8.99999 34C8.4477 34 7.99999 34.4477 7.99999 35ZM5.99999 35C5.99999 36.6569 7.34313 38 8.99999 38C10.6568 38 12 36.6569 12 35C12 33.3432 10.6568 32 8.99999 32C7.34313 32 5.99999 33.3432 5.99999 35Z" fill="#35291B"/>
<path fill-rule="evenodd" clip-rule="evenodd" d="M9.99999 42L14 42L14 44L9.99999 44L9.99999 42Z" fill="#35291B"/>
<path fill-rule="evenodd" clip-rule="evenodd" d="M7.99998 43C7.99998 43.5523 8.4477 44 8.99998 44C9.55227 44 9.99999 43.5523 9.99999 43C9.99999 42.4477 9.55227 42 8.99999 42C8.4477 42 7.99998 42.4477 7.99998 43ZM5.99999 43C5.99999 44.6569 7.34313 46 8.99998 46C10.6568 46 12 44.6569 12 43C12 41.3432 10.6568 40 8.99999 40C7.34313 40 5.99999 41.3432 5.99999 43Z" fill="#35291B"/>
<path fill-rule="evenodd" clip-rule="evenodd" d="M9.99998 50L14 50L14 52L9.99998 52L9.99998 50Z" fill="#35291B"/>
<path fill-rule="evenodd" clip-rule="evenodd" d="M7.99998 51C7.99998 51.5523 8.4477 52 8.99998 52C9.55227 52 9.99998 51.5523 9.99998 51C9.99998 50.4477 9.55227 50 8.99998 50C8.4477 50 7.99998 50.4477 7.99998 51ZM5.99998 51C5.99998 52.6569 7.34313 54 8.99998 54C10.6568 54 12 52.6569 12 51C12 49.3432 10.6568 48 8.99998 48C7.34313 48 5.99998 49.3432 5.99998 51Z" fill="#35291B"/>
<path fill-rule="evenodd" clip-rule="evenodd" d="M40 48L40 22L28 22C24.6863 22 22 24.6863 22 28L22 42C22 45.3137 24.6863 48 28 48L40 48ZM42 20L28 20C23.5817 20 20 23.5817 20 28L20 42C20 46.4183 23.5817 50 28 50L42 50L42 20Z" fill="#35291B"/>
<path fill-rule="evenodd" clip-rule="evenodd" d="M43.8383 10.6967C42.7532 11.6269 42 13.0343 42 15L40 15C40 12.4657 40.9969 10.4981 42.5367 9.17824C44.0555 7.87639 46.0465 7.25 48 7.25C49.9535 7.25 51.9445 7.8764 53.4633 9.17825C55.0032 10.4981 56 12.4657 56 15L54 15C54 13.0343 53.2469 11.6269 52.1617 10.6968C51.0555 9.74861 49.5465 9.25 48 9.25C46.4535 9.25 44.9445 9.7486 43.8383 10.6967Z" fill="#35291B"/>
</svg>
