<svg width="64" height="64" viewBox="0 0 64 64" fill="none" xmlns="http://www.w3.org/2000/svg">
<path fill-rule="evenodd" clip-rule="evenodd" d="M8.66666 21.3333C8.66666 17.2832 11.9499 14 16 14H48C52.0501 14 55.3333 17.2832 55.3333 21.3333V53.3333C55.3333 57.3834 52.0501 60.6667 48 60.6667H16C11.9499 60.6667 8.66666 57.3834 8.66666 53.3333V21.3333ZM16 18C14.159 18 12.6667 19.4924 12.6667 21.3333V53.3333C12.6667 55.1743 14.159 56.6667 16 56.6667H48C49.8409 56.6667 51.3333 55.1743 51.3333 53.3333V21.3333C51.3333 19.4924 49.8409 18 48 18H16Z" fill="#35291B"/>
<path fill-rule="evenodd" clip-rule="evenodd" d="M14 37.3333C14 33.2832 17.2832 30 21.3333 30H42.6667C46.7167 30 50 33.2832 50 37.3333V48C50 52.0501 46.7167 55.3333 42.6667 55.3333H21.3333C17.2832 55.3333 14 52.0501 14 48V37.3333ZM21.3333 34C19.4924 34 18 35.4924 18 37.3333V48C18 49.841 19.4924 51.3333 21.3333 51.3333H42.6667C44.5076 51.3333 46 49.841 46 48V37.3333C46 35.4924 44.5076 34 42.6667 34H21.3333Z" fill="#35291B"/>
<path fill-rule="evenodd" clip-rule="evenodd" d="M18.6667 22.6667C18.6667 21.9303 19.2636 21.3333 20 21.3333H44C44.7364 21.3333 45.3333 21.9303 45.3333 22.6667C45.3333 23.403 44.7364 24 44 24H20C19.2636 24 18.6667 23.403 18.6667 22.6667Z" fill="#35291B"/>
<path d="M32 45.3333C32 48.2789 29.6122 50.6667 26.6667 50.6667C23.7211 50.6667 21.3333 48.2789 21.3333 45.3333C21.3333 42.3878 23.7211 40 26.6667 40C29.6122 40 32 42.3878 32 45.3333Z" fill="#CFBBAF"/>
<path fill-rule="evenodd" clip-rule="evenodd" d="M26.6667 41.3333C24.4575 41.3333 22.6667 43.1242 22.6667 45.3333C22.6667 47.5425 24.4575 49.3333 26.6667 49.3333C28.8758 49.3333 30.6667 47.5425 30.6667 45.3333C30.6667 43.1242 28.8758 41.3333 26.6667 41.3333ZM20 45.3333C20 41.6514 22.9848 38.6667 26.6667 38.6667C30.3486 38.6667 33.3333 41.6514 33.3333 45.3333C33.3333 49.0152 30.3486 52 26.6667 52C22.9848 52 20 49.0152 20 45.3333Z" fill="#35291B"/>
<path d="M37.3333 45.3333C37.3333 48.2789 34.9455 50.6667 32 50.6667C29.0545 50.6667 26.6667 48.2789 26.6667 45.3333C26.6667 42.3878 29.0545 40 32 40C34.9455 40 37.3333 42.3878 37.3333 45.3333Z" fill="#CFBBAF"/>
<path fill-rule="evenodd" clip-rule="evenodd" d="M32 41.3333C29.7908 41.3333 28 43.1242 28 45.3333C28 47.5425 29.7908 49.3333 32 49.3333C34.2091 49.3333 36 47.5425 36 45.3333C36 43.1242 34.2091 41.3333 32 41.3333ZM25.3333 45.3333C25.3333 41.6514 28.3181 38.6667 32 38.6667C35.6819 38.6667 38.6667 41.6514 38.6667 45.3333C38.6667 49.0152 35.6819 52 32 52C28.3181 52 25.3333 49.0152 25.3333 45.3333Z" fill="#35291B"/>
<path d="M42.6667 45.3333C42.6667 48.2789 40.2788 50.6667 37.3333 50.6667C34.3878 50.6667 32 48.2789 32 45.3333C32 42.3878 34.3878 40 37.3333 40C40.2788 40 42.6667 42.3878 42.6667 45.3333Z" fill="#CFBBAF"/>
<path fill-rule="evenodd" clip-rule="evenodd" d="M37.3333 41.3333C35.1242 41.3333 33.3333 43.1242 33.3333 45.3333C33.3333 47.5425 35.1242 49.3333 37.3333 49.3333C39.5425 49.3333 41.3333 47.5425 41.3333 45.3333C41.3333 43.1242 39.5425 41.3333 37.3333 41.3333ZM30.6667 45.3333C30.6667 41.6514 33.6514 38.6667 37.3333 38.6667C41.0152 38.6667 44 41.6514 44 45.3333C44 49.0152 41.0152 52 37.3333 52C33.6514 52 30.6667 49.0152 30.6667 45.3333Z" fill="#35291B"/>
</svg>
