<svg width="64" height="64" viewBox="0 0 64 64" fill="none" xmlns="http://www.w3.org/2000/svg">
<path fill-rule="evenodd" clip-rule="evenodd" d="M5.00001 23.9999C5.00001 22.3431 6.34316 20.9999 8.00001 20.9999H36C36.5523 20.9999 37 21.4477 37 21.9999C37 22.5522 36.5523 22.9999 36 22.9999H8.00001C7.44772 22.9999 7.00001 23.4477 7.00001 23.9999V38C7.00001 38.5523 7.44773 39 8.00001 39H10C10.5523 39 11 38.5523 11 38V30C11 28.3432 12.3431 27 14 27H26C27.6569 27 29 28.3432 29 30V38C29 38.5523 29.4477 39 30 39H36C36.5523 39 37 39.4477 37 40C37 40.5523 36.5523 41 36 41H30C28.3432 41 27 39.6569 27 38V30C27 29.4477 26.5523 29 26 29H14C13.4477 29 13 29.4477 13 30V38C13 39.6569 11.6569 41 10 41H8.00001C6.34316 41 5.00001 39.6569 5.00001 38V23.9999Z" fill="#35291B"/>
<path fill-rule="evenodd" clip-rule="evenodd" d="M12.8017 38.4022C13.1318 38.8449 13.0405 39.4715 12.5978 39.8016C11.7621 40.4247 10.8521 41.4889 9.9301 42.8827C9.01702 44.263 8.1304 45.9079 7.32489 47.6338C5.70917 51.0957 4.46091 54.7944 3.98059 57.1961C3.87228 57.7376 3.34545 58.0888 2.80389 57.9805C2.26233 57.8722 1.91112 57.3454 2.01943 56.8038C2.5391 54.2055 3.84914 50.3521 5.51256 46.7879C6.34662 45.0008 7.27979 43.2641 8.26203 41.7793C9.2354 40.3078 10.2962 39.023 11.4022 38.1983C11.845 37.8681 12.4715 37.9594 12.8017 38.4022Z" fill="#35291B"/>
<path fill-rule="evenodd" clip-rule="evenodd" d="M28.8017 39.4022C29.1318 39.8449 29.0405 40.4715 28.5978 40.8016C27.7746 41.4155 26.9309 42.4462 26.1063 43.7998C25.2892 45.141 24.5274 46.7382 23.8456 48.4216C22.4809 51.7907 21.4691 55.4241 20.9806 57.8667C20.8723 58.4083 20.3455 58.7595 19.8039 58.6512C19.2623 58.5429 18.9111 58.016 19.0194 57.4745C19.5309 54.9171 20.5774 51.163 21.9919 47.6708C22.6996 45.9235 23.5076 44.2214 24.3983 42.7593C25.2815 41.3094 26.2837 40.0323 27.4022 39.1983C27.845 38.8681 28.4715 38.9594 28.8017 39.4022Z" fill="#35291B"/>
<path d="M42 22.4999C42 22.2238 42.2239 21.9999 42.5 21.9999H43.5C43.7762 21.9999 44 22.2238 44 22.4999V23.4999C44 23.7761 43.7762 23.9999 43.5 23.9999H42.5C42.2239 23.9999 42 23.7761 42 23.4999V22.4999Z" fill="#35291B"/>
<path fill-rule="evenodd" clip-rule="evenodd" d="M41.5 22.4999C41.5 21.9477 41.9477 21.4999 42.5 21.4999H43.5C44.0523 21.4999 44.5 21.9477 44.5 22.4999V23.4999C44.5 24.0522 44.0523 24.4999 43.5 24.4999H42.5C41.9477 24.4999 41.5 24.0522 41.5 23.4999V22.4999ZM43.5 22.4999H42.5V23.4999H43.5V22.4999Z" fill="#35291B"/>
<path d="M46 22.4999C46 22.2238 46.2239 21.9999 46.5 21.9999H47.5C47.7762 21.9999 48 22.2238 48 22.4999V23.4999C48 23.7761 47.7762 23.9999 47.5 23.9999H46.5C46.2239 23.9999 46 23.7761 46 23.4999V22.4999Z" fill="#35291B"/>
<path fill-rule="evenodd" clip-rule="evenodd" d="M45.5 22.4999C45.5 21.9477 45.9477 21.4999 46.5 21.4999H47.5C48.0523 21.4999 48.5 21.9477 48.5 22.4999V23.4999C48.5 24.0522 48.0523 24.4999 47.5 24.4999H46.5C45.9477 24.4999 45.5 24.0522 45.5 23.4999V22.4999ZM47.5 22.4999H46.5V23.4999H47.5V22.4999Z" fill="#35291B"/>
<path d="M42 26.4999C42 26.2238 42.2239 25.9999 42.5 25.9999H43.5C43.7762 25.9999 44 26.2238 44 26.4999V27.4999C44 27.7761 43.7762 27.9999 43.5 27.9999H42.5C42.2239 27.9999 42 27.7761 42 27.4999V26.4999Z" fill="#35291B"/>
<path fill-rule="evenodd" clip-rule="evenodd" d="M41.5 26.4999C41.5 25.9477 41.9477 25.4999 42.5 25.4999H43.5C44.0523 25.4999 44.5 25.9477 44.5 26.4999V27.4999C44.5 28.0522 44.0523 28.4999 43.5 28.4999H42.5C41.9477 28.4999 41.5 28.0522 41.5 27.4999V26.4999ZM43.5 26.4999H42.5V27.4999H43.5V26.4999Z" fill="#35291B"/>
<path d="M46 26.4999C46 26.2238 46.2239 25.9999 46.5 25.9999H47.5C47.7762 25.9999 48 26.2238 48 26.4999V27.4999C48 27.7761 47.7762 27.9999 47.5 27.9999H46.5C46.2239 27.9999 46 27.7761 46 27.4999V26.4999Z" fill="#35291B"/>
<path fill-rule="evenodd" clip-rule="evenodd" d="M45.5 26.4999C45.5 25.9477 45.9477 25.4999 46.5 25.4999H47.5C48.0523 25.4999 48.5 25.9477 48.5 26.4999V27.4999C48.5 28.0522 48.0523 28.4999 47.5 28.4999H46.5C45.9477 28.4999 45.5 28.0522 45.5 27.4999V26.4999ZM47.5 26.4999H46.5V27.4999H47.5V26.4999Z" fill="#35291B"/>
<path d="M54.331 20.4979L52.331 18.6979C52.1203 18.5082 52 18.2381 52 17.9546V16.9999C52 16.4477 52.4477 15.9999 53 15.9999H55C55.5523 15.9999 56 16.4477 56 16.9999V19.7546C56 20.6204 54.9746 21.0771 54.331 20.4979Z" fill="#35291B"/>
<path fill-rule="evenodd" clip-rule="evenodd" d="M45.6823 16.0047C45.2981 15.6461 44.7019 15.6461 44.3177 16.0047L30.6823 28.731C30.2786 29.1078 29.6458 29.086 29.269 28.6823C28.8921 28.2785 28.9139 27.6457 29.3177 27.2689L42.9531 14.5426C44.1057 13.4668 45.8943 13.4668 47.047 14.5426L60.6823 27.2689C61.0861 27.6457 61.1079 28.2785 60.7311 28.6823C60.3542 29.086 59.7214 29.1078 59.3177 28.731L45.6823 16.0047Z" fill="#35291B"/>
<path fill-rule="evenodd" clip-rule="evenodd" d="M34 23.9999C34.5523 23.9999 35 24.4477 35 24.9999V37.9999C35 38.5522 35.4477 39 36 39L54 38.9999C54.5523 38.9999 55 38.5522 55 37.9999V24.9999C55 24.4477 55.4477 23.9999 56 23.9999C56.5523 23.9999 57 24.4477 57 24.9999V37.9999C57 39.6568 55.6569 40.9999 54 40.9999L36 41C34.3432 41 33 39.6568 33 37.9999V24.9999C33 24.4477 33.4477 23.9999 34 23.9999Z" fill="#35291B"/>
<path d="M42 33.9999C42 32.8954 42.8954 31.9999 44 31.9999H46C47.1046 31.9999 48 32.8954 48 33.9999V39.9999H42V33.9999Z" fill="#35291B"/>
</svg>
