<svg width="64" height="64" viewBox="0 0 64 64" fill="none" xmlns="http://www.w3.org/2000/svg">
<path fill-rule="evenodd" clip-rule="evenodd" d="M48 10H16C12.6863 10 10 12.6863 10 16V48C10 51.3137 12.6863 54 16 54H48C51.3137 54 54 51.3137 54 48V16C54 12.6863 51.3137 10 48 10ZM16 8C11.5817 8 8 11.5817 8 16V48C8 52.4183 11.5817 56 16 56H48C52.4183 56 56 52.4183 56 48V16C56 11.5817 52.4183 8 48 8H16Z" fill="#35291B"/>
<path fill-rule="evenodd" clip-rule="evenodd" d="M56 22H8V20H56V22Z" fill="#35291B"/>
<path d="M44 15C44 16.6569 42.6569 18 41 18C39.3431 18 38 16.6569 38 15C38 13.3431 39.3431 12 41 12C42.6569 12 44 13.3431 44 15Z" fill="#35291B"/>
<path d="M46 13C46 12.4477 46.4477 12 47 12H49C49.5523 12 50 12.4477 50 13C50 13.5523 49.5523 14 49 14H47C46.4477 14 46 13.5523 46 13Z" fill="#35291B"/>
<path d="M32 13C32 12.4477 32.4477 12 33 12H35C35.5523 12 36 12.4477 36 13C36 13.5523 35.5523 14 35 14H33C32.4477 14 32 13.5523 32 13Z" fill="#35291B"/>
<path d="M46 17C46 16.4477 46.4477 16 47 16H49C49.5523 16 50 16.4477 50 17C50 17.5523 49.5523 18 49 18H47C46.4477 18 46 17.5523 46 17Z" fill="#35291B"/>
<path d="M32 17C32 16.4477 32.4477 16 33 16H35C35.5523 16 36 16.4477 36 17C36 17.5523 35.5523 18 35 18H33C32.4477 18 32 17.5523 32 17Z" fill="#35291B"/>
<path fill-rule="evenodd" clip-rule="evenodd" d="M32 25C24.8203 25 19 30.8203 19 38C19 45.1797 24.8203 51 32 51C39.1797 51 45 45.1797 45 38C45 30.8203 39.1797 25 32 25ZM17 38C17 29.7157 23.7157 23 32 23C40.2843 23 47 29.7157 47 38C47 46.2843 40.2843 53 32 53C23.7157 53 17 46.2843 17 38Z" fill="#35291B"/>
<path fill-rule="evenodd" clip-rule="evenodd" d="M32 48C37.5228 48 42 43.5229 42 38C42 32.4772 37.5228 28 32 28C26.4772 28 22 32.4772 22 38C22 43.5229 26.4772 48 32 48ZM32 50C38.6274 50 44 44.6274 44 38C44 31.3726 38.6274 26 32 26C25.3726 26 20 31.3726 20 38C20 44.6274 25.3726 50 32 50Z" fill="#35291B"/>
<path fill-rule="evenodd" clip-rule="evenodd" d="M23 14H17C16.4477 14 16 14.4477 16 15C16 15.5523 16.4477 16 17 16H23C23.5523 16 24 15.5523 24 15C24 14.4477 23.5523 14 23 14ZM17 12C15.3431 12 14 13.3431 14 15C14 16.6569 15.3431 18 17 18H23C24.6569 18 26 16.6569 26 15C26 13.3431 24.6569 12 23 12H17Z" fill="#35291B"/>
<path fill-rule="evenodd" clip-rule="evenodd" d="M28.1191 32.857C27.6023 32.2735 27.602 32.2738 27.602 32.2738L27.5996 32.2769L27.5949 32.2832L27.5792 32.3041C27.5662 32.3216 27.548 32.3463 27.5254 32.3776C27.4802 32.4401 27.4173 32.5292 27.3426 32.6403C27.1939 32.8613 26.9953 33.1745 26.7976 33.5412C26.4296 34.2237 25.9555 35.2864 26.0034 36.3332C26.0608 37.5882 26.8328 38.2492 27.2996 38.6489C27.3197 38.6661 27.3393 38.6829 27.3582 38.6992C27.9209 39.1839 28.1036 39.3998 28.1202 39.7618C28.1407 40.2097 27.9092 40.8613 27.5544 41.5195C27.3908 41.823 27.2238 42.0868 27.0972 42.275C27.0342 42.3686 26.9821 42.4422 26.9467 42.4914C26.9289 42.5159 26.9154 42.5342 26.9068 42.5457L26.8977 42.5579L26.8966 42.5593C26.6318 42.9061 26.6479 43.4486 26.9331 43.7707C27.2186 44.093 27.6651 44.0731 27.9304 43.7264L27.4135 43.1428C27.9304 43.7264 27.9304 43.7264 27.9304 43.7264L27.9314 43.725L27.933 43.7229L27.9377 43.7167L27.9534 43.6958C27.9664 43.6783 27.9846 43.6536 28.0072 43.6223C28.0524 43.5598 28.1154 43.4707 28.1901 43.3596C28.3387 43.1385 28.5373 42.8254 28.7351 42.4586C29.103 41.7761 29.5771 40.7135 29.5293 39.6667C29.4719 38.4117 28.6998 37.7507 28.233 37.351C28.2129 37.3338 28.1934 37.317 28.1744 37.3007C27.6117 36.816 27.429 36.6001 27.4124 36.2381C27.3919 35.7902 27.6234 35.1385 27.9782 34.4804C28.1418 34.1769 28.3088 33.9131 28.4354 33.7249C28.4984 33.6313 28.5505 33.5576 28.586 33.5085C28.6037 33.484 28.6172 33.4657 28.6258 33.4541L28.6349 33.442L28.6362 33.4403C28.9011 33.0935 28.8848 32.5513 28.5995 32.2292C28.314 31.9069 27.8673 31.927 27.602 32.2738L28.1191 32.857Z" fill="#35291B"/>
<path fill-rule="evenodd" clip-rule="evenodd" d="M36.5865 32.857C36.0696 32.2735 36.0694 32.2738 36.0694 32.2738L36.067 32.2769L36.0623 32.2832L36.0466 32.3041C36.0336 32.3216 36.0154 32.3463 35.9928 32.3776C35.9476 32.4401 35.8846 32.5292 35.8099 32.6403C35.6613 32.8613 35.4627 33.1745 35.2649 33.5412C34.897 34.2237 34.4229 35.2864 34.4707 36.3332C34.5281 37.5882 35.3002 38.2492 35.767 38.6489C35.7871 38.6661 35.8066 38.6829 35.8256 38.6992C36.3883 39.1839 36.571 39.3998 36.5876 39.7618C36.6081 40.2097 36.3766 40.8613 36.0218 41.5195C35.8582 41.823 35.6912 42.0868 35.5646 42.275C35.5016 42.3686 35.4495 42.4422 35.414 42.4914C35.3963 42.5159 35.3828 42.5342 35.3742 42.5457L35.3651 42.5579L35.364 42.5593C35.0992 42.9061 35.1152 43.4486 35.4005 43.7707C35.686 44.093 36.1325 44.0731 36.3977 43.7264L35.8809 43.1428C36.3977 43.7264 36.3977 43.7264 36.3977 43.7264L36.3988 43.725L36.4004 43.7229L36.4051 43.7167L36.4208 43.6958C36.4338 43.6783 36.452 43.6536 36.4746 43.6223C36.5198 43.5598 36.5827 43.4707 36.6574 43.3596C36.8061 43.1385 37.0047 42.8254 37.2024 42.4586C37.5704 41.7761 38.0445 40.7135 37.9966 39.6667C37.9392 38.4117 37.1672 37.7507 36.7004 37.351C36.6803 37.3338 36.6607 37.317 36.6418 37.3007C36.0791 36.816 35.8964 36.6001 35.8798 36.2381C35.8593 35.7902 36.0908 35.1385 36.4456 34.4804C36.6092 34.1769 36.7762 33.9131 36.9028 33.7249C36.9658 33.6313 37.0179 33.5576 37.0533 33.5085C37.0711 33.484 37.0846 33.4657 37.0932 33.4541L37.1023 33.442L37.1035 33.4403C37.3684 33.0935 37.3522 32.5513 37.0669 32.2292C36.7814 31.9069 36.3347 31.927 36.0694 32.2738L36.5865 32.857Z" fill="#35291B"/>
<path fill-rule="evenodd" clip-rule="evenodd" d="M32.3528 32.857C31.8359 32.2735 31.8357 32.2738 31.8357 32.2738L31.8333 32.2769L31.8286 32.2832L31.8129 32.3041C31.7999 32.3216 31.7817 32.3463 31.7591 32.3776C31.7139 32.4401 31.6509 32.5292 31.5763 32.6403C31.4276 32.8613 31.229 33.1745 31.0313 33.5412C30.6633 34.2237 30.1892 35.2864 30.237 36.3332C30.2944 37.5882 31.0665 38.2492 31.5333 38.6489C31.5534 38.6661 31.573 38.6829 31.5919 38.6992C32.1546 39.1839 32.3373 39.3998 32.3539 39.7618C32.3744 40.2097 32.1429 40.8613 31.7881 41.5195C31.6245 41.823 31.4575 42.0868 31.3309 42.275C31.2679 42.3686 31.2158 42.4422 31.1804 42.4914C31.1626 42.5159 31.1491 42.5342 31.1405 42.5457L31.1314 42.5579L31.1303 42.5593C30.8655 42.9061 30.8815 43.4486 31.1668 43.7707C31.4523 44.093 31.8988 44.0731 32.1641 43.7264L31.6472 43.1428C32.1641 43.7264 32.1641 43.7264 32.1641 43.7264L32.1651 43.725L32.1667 43.7229L32.1714 43.7167L32.1871 43.6958C32.2001 43.6783 32.2183 43.6536 32.2409 43.6223C32.2861 43.5598 32.3491 43.4707 32.4237 43.3596C32.5724 43.1385 32.771 42.8254 32.9688 42.4586C33.3367 41.7761 33.8108 40.7135 33.763 39.6667C33.7056 38.4117 32.9335 37.7507 32.4667 37.351C32.4466 37.3338 32.4271 37.317 32.4081 37.3007C31.8454 36.816 31.6627 36.6001 31.6461 36.2381C31.6256 35.7902 31.8571 35.1385 32.2119 34.4804C32.3755 34.1769 32.5425 33.9131 32.6691 33.7249C32.7321 33.6313 32.7842 33.5576 32.8196 33.5085C32.8374 33.484 32.8509 33.4657 32.8595 33.4541L32.8686 33.442L32.8698 33.4403C33.1348 33.0935 33.1185 32.5513 32.8332 32.2292C32.5477 31.9069 32.101 31.927 31.8357 32.2738L32.3528 32.857Z" fill="#35291B"/>
</svg>
