<svg width="64" height="64" viewBox="0 0 64 64" fill="none" xmlns="http://www.w3.org/2000/svg">
<path fill-rule="evenodd" clip-rule="evenodd" d="M44 22H20C16.6863 22 14 24.6863 14 28V46H50V28C50 24.6863 47.3137 22 44 22ZM20 20C15.5817 20 12 23.5817 12 28V48H52V28C52 23.5817 48.4183 20 44 20H20Z" fill="#35291B"/>
<path fill-rule="evenodd" clip-rule="evenodd" d="M31.459 26.6056C31.3386 25.6029 32.5118 24.8054 33.4013 25.5268C34.1081 26.1 35.6503 27.4123 37.1425 29.0984C38.6144 30.7617 40.1376 32.8985 40.6628 35.1223C41.7917 39.9022 39.9626 43.5772 36.9806 45.5083C34.0568 47.4018 30.067 47.5795 26.97 45.5395C23.9177 43.5289 23.0194 40.8536 23.0003 38.5379C22.9816 36.2837 23.7892 34.3992 24.0863 33.7791C24.4238 33.0748 25.2575 32.942 25.8097 33.295C26.1994 33.5441 27.1746 34.1301 28.2252 34.4952C28.7505 34.6778 29.2472 34.7881 29.6707 34.7959C30.0896 34.8037 30.3674 34.7115 30.5539 34.5653C30.8155 34.3602 31.077 33.9474 31.2805 33.262C31.4789 32.5939 31.589 31.779 31.6352 30.9154C31.7275 29.1907 31.558 27.4307 31.459 26.6056ZM33.6186 28.3628C33.6631 29.1689 33.682 30.0953 33.6324 31.0223C33.5817 31.9684 33.4579 32.9551 33.1978 33.8312C32.9428 34.6899 32.5214 35.564 31.788 36.1391C31.1295 36.6555 30.3504 36.8088 29.6337 36.7956C28.9216 36.7824 28.2037 36.6052 27.5686 36.3844C26.8049 36.119 26.092 35.7659 25.5501 35.4659C25.2825 36.2129 24.9902 37.3114 25.0002 38.5213C25.0147 40.2695 25.6526 42.2768 28.0702 43.8693C30.4558 45.4407 33.5857 45.3242 35.8934 43.8296C38.143 42.3728 39.6573 39.5659 38.7163 35.5821C38.3075 33.8509 37.0561 32.0186 35.6448 30.4238C34.9487 29.6373 34.238 28.9353 33.6186 28.3628Z" fill="#35291B"/>
<path fill-rule="evenodd" clip-rule="evenodd" d="M32.204 38.591C32.1175 37.6009 33.3238 36.7906 34.2029 37.5963C34.5653 37.9285 35.1215 38.4754 35.6344 39.1364C36.1357 39.7827 36.6592 40.6182 36.8599 41.5247C37.3282 43.6396 36.5762 45.3619 35.2323 46.2904C33.9334 47.1876 32.1414 47.281 30.7451 46.3C29.5145 45.4353 29.0731 44.2869 29.0087 43.2636C28.9472 42.2863 29.2264 41.4441 29.3849 41.0481C29.6976 40.2669 30.5874 40.142 31.1396 40.4944C31.3332 40.6179 31.6267 40.7832 31.8989 40.8693C31.9711 40.8921 32.0283 40.9049 32.0712 40.9117C32.0815 40.8876 32.0933 40.8569 32.1058 40.8185C32.1585 40.6569 32.1995 40.4345 32.2236 40.1618C32.2716 39.6172 32.2408 39.0119 32.204 38.591ZM34.194 40.5484C34.1588 40.8433 34.1014 41.15 34.0073 41.4385C33.8948 41.7835 33.6987 42.2001 33.3307 42.5079C32.6251 43.0981 31.7504 42.9199 31.2958 42.7762C31.201 42.7462 31.1078 42.7125 31.0175 42.6765C31.001 42.8244 30.9948 42.9799 31.0047 43.1381C31.0368 43.6471 31.2317 44.1975 31.8949 44.6635C32.5547 45.1271 33.4325 45.1028 34.0955 44.6448C34.7133 44.218 35.2151 43.3477 34.9072 41.9571C34.8124 41.5288 34.5526 41.041 34.194 40.5484Z" fill="#35291B"/>
<path fill-rule="evenodd" clip-rule="evenodd" d="M17 50H7C6.44772 50 6 50.4477 6 51C6 51.5523 6.44772 52 7 52H17C17.5523 52 18 51.5523 18 51C18 50.4477 17.5523 50 17 50ZM7 48C5.34315 48 4 49.3431 4 51C4 52.6569 5.34315 54 7 54H17C18.6569 54 20 52.6569 20 51C20 49.3431 18.6569 48 17 48H7Z" fill="#35291B"/>
<path fill-rule="evenodd" clip-rule="evenodd" d="M57 50H47C46.4477 50 46 50.4477 46 51C46 51.5523 46.4477 52 47 52H57C57.5523 52 58 51.5523 58 51C58 50.4477 57.5523 50 57 50ZM47 48C45.3431 48 44 49.3431 44 51C44 52.6569 45.3431 54 47 54H57C58.6569 54 60 52.6569 60 51C60 49.3431 58.6569 48 57 48H47Z" fill="#35291B"/>
<path fill-rule="evenodd" clip-rule="evenodd" d="M55 10H9C7.34315 10 6 11.3431 6 13C6 14.6569 7.34315 16 9 16H55C56.6569 16 58 14.6569 58 13C58 11.3431 56.6569 10 55 10ZM9 8C6.23858 8 4 10.2386 4 13C4 15.7614 6.23858 18 9 18H55C57.7614 18 60 15.7614 60 13C60 10.2386 57.7614 8 55 8H9Z" fill="#35291B"/>
<path fill-rule="evenodd" clip-rule="evenodd" d="M46 52H18V50H46V52Z" fill="#35291B"/>
<path fill-rule="evenodd" clip-rule="evenodd" d="M10 16V50H8V16H10Z" fill="#35291B"/>
<path fill-rule="evenodd" clip-rule="evenodd" d="M56 16V50H54V16H56Z" fill="#35291B"/>
</svg>
