<svg width="64" height="64" viewBox="0 0 64 64" fill="none" xmlns="http://www.w3.org/2000/svg">
<path d="M38 42H46V44H38V42Z" fill="#CFBBAF"/>
<path d="M38 24H46V26H38V24Z" fill="#CFBBAF"/>
<path fill-rule="evenodd" clip-rule="evenodd" d="M37 23C37 22.4477 37.4477 22 38 22H46C46.5523 22 47 22.4477 47 23C47 23.5523 46.5523 24 46 24H38C37.4477 24 37 23.5523 37 23Z" fill="#35291B"/>
<path fill-rule="evenodd" clip-rule="evenodd" d="M37 27C37 26.4477 37.4477 26 38 26H46C46.5523 26 47 26.4477 47 27C47 27.5523 46.5523 28 46 28H38C37.4477 28 37 27.5523 37 27Z" fill="#35291B"/>
<path fill-rule="evenodd" clip-rule="evenodd" d="M37 41C37 40.4477 37.4477 40 38 40H46C46.5523 40 47 40.4477 47 41C47 41.5523 46.5523 42 46 42H38C37.4477 42 37 41.5523 37 41Z" fill="#35291B"/>
<path fill-rule="evenodd" clip-rule="evenodd" d="M37 45C37 44.4477 37.4477 44 38 44H46C46.5523 44 47 44.4477 47 45C47 45.5523 46.5523 46 46 46H38C37.4477 46 37 45.5523 37 45Z" fill="#35291B"/>
<path d="M20 42H21H27H28V44H27H21H20V42Z" fill="#CFBBAF"/>
<path d="M20 24H21H27H28V26H27H21H20V24Z" fill="#CFBBAF"/>
<path d="M16 25C16 25.5523 15.5523 26 15 26C14.4477 26 14 25.5523 14 25C14 24.4477 14.4477 24 15 24C15.5523 24 16 24.4477 16 25Z" fill="#35291B"/>
<path d="M16 43C16 43.5523 15.5523 44 15 44C14.4477 44 14 43.5523 14 43C14 42.4477 14.4477 42 15 42C15.5523 42 16 42.4477 16 43Z" fill="#35291B"/>
<path d="M34 25C34 25.5523 33.5523 26 33 26C32.4477 26 32 25.5523 32 25C32 24.4477 32.4477 24 33 24C33.5523 24 34 24.4477 34 25Z" fill="#35291B"/>
<path d="M34 43C34 43.5523 33.5523 44 33 44C32.4477 44 32 43.5523 32 43C32 42.4477 32.4477 42 33 42C33.5523 42 34 42.4477 34 43Z" fill="#35291B"/>
<path fill-rule="evenodd" clip-rule="evenodd" d="M57 47C57 48.6568 55.6569 50 54 50H48C46.3431 50 45 48.6568 45 47L45 21.6409C45 21.0157 45.1954 20.406 45.5588 19.8972L48.5588 15.6972C49.7553 14.0222 52.2447 14.0222 53.4412 15.6972L56.4412 19.8972C56.8046 20.406 57 21.0157 57 21.6409L57 47ZM54 48C54.5523 48 55 47.5523 55 47L55 21.6409C55 21.4325 54.9349 21.2293 54.8137 21.0597L51.8137 16.8597C51.4149 16.3013 50.5851 16.3013 50.1863 16.8597L47.1863 21.0597C47.0651 21.2293 47 21.4325 47 21.6409L47 47C47 47.5523 47.4477 48 48 48H54Z" fill="#35291B"/>
<path d="M52 25C52 25.5523 51.5523 26 51 26C50.4477 26 50 25.5523 50 25C50 24.4477 50.4477 24 51 24C51.5523 24 52 24.4477 52 25Z" fill="#35291B"/>
<path d="M52 43C52 43.5523 51.5523 44 51 44C50.4477 44 50 43.5523 50 43C50 42.4477 50.4477 42 51 42C51.5523 42 52 42.4477 52 43Z" fill="#35291B"/>
<path d="M19 23C19 23.5523 19.4477 24 20 24H21V22H20C19.4477 22 19 22.4477 19 23Z" fill="#35291B"/>
<path d="M29 27C29 26.4477 28.5523 26 28 26H27V28H28C28.5523 28 29 27.5523 29 27Z" fill="#35291B"/>
<path d="M29 23C29 22.4477 28.5523 22 28 22H27V24H28C28.5523 24 29 23.5523 29 23Z" fill="#35291B"/>
<path d="M19 41C19 41.5523 19.4477 42 20 42H21V40H20C19.4477 40 19 40.4477 19 41Z" fill="#35291B"/>
<path fill-rule="evenodd" clip-rule="evenodd" d="M18 50C19.6569 50 21 48.6568 21 47V46H27V47C27 48.6568 28.3431 50 30 50H36C37.6569 50 39 48.6568 39 47L39 21.6409C39 21.0157 38.8046 20.406 38.4412 19.8972L35.4412 15.6972C34.2447 14.0222 31.7553 14.0222 30.5588 15.6972L27.5588 19.8972C27.1954 20.406 27 21.0157 27 21.6409V22H21V21.6409C21 21.0157 20.8046 20.406 20.4412 19.8972L17.4412 15.6972C16.2447 14.0222 13.7553 14.0222 12.5588 15.6972L9.5588 19.8972C9.19537 20.406 9 21.0157 9 21.6409L9 47C9 48.6568 10.3431 50 12 50H18ZM21 24V22H20C19.4477 22 19 22.4477 19 23L19 21.6409C19 21.4325 18.9349 21.2293 18.8137 21.0597L15.8137 16.8597C15.4149 16.3013 14.5851 16.3013 14.1863 16.8597L11.1863 21.0597C11.0651 21.2293 11 21.4325 11 21.6409L11 47C11 47.5523 11.4477 48 12 48H18C18.5523 48 19 47.5523 19 47V45C19 45.5523 19.4477 46 20 46H21L21 44H27V42H21V40H27L27 28H28C28.5523 28 29 27.5523 29 27V41V45V47C29 47.5523 29.4477 48 30 48H36C36.5523 48 37 47.5523 37 47L37 21.6409C37 21.4325 36.9349 21.2293 36.8137 21.0597L33.8137 16.8597C33.4149 16.3013 32.5851 16.3013 32.1863 16.8597L29.1863 21.0597C29.0651 21.2293 29 21.4325 29 21.6409L29 23C29 22.4477 28.5523 22 28 22H27V24H21ZM27 26V28H21L21 40H20C19.4477 40 19 40.4477 19 41V27V23C19 23.5523 19.4477 24 20 24H21V26H27ZM19 45C19 44.4477 19.4477 44 20 44H21V42H20C19.4477 42 19 41.5523 19 41V45ZM27 26V24H28C28.5523 24 29 23.5523 29 23V27C29 26.4477 28.5523 26 28 26H27Z" fill="#35291B"/>
<path d="M19 45C19 45.5523 19.4477 46 20 46H21L21 44H20C19.4477 44 19 44.4477 19 45Z" fill="#35291B"/>
</svg>
