<svg width="64" height="64" viewBox="0 0 64 64" fill="none" xmlns="http://www.w3.org/2000/svg">
<path d="M20 50H32V56H20V50Z" fill="#CFBBAF"/>
<path d="M32 50H20V10H23.0385H24.4706L31.249 17.042L32 17.8222V19.033V50Z" fill="#CFBBAF"/>
<path fill-rule="evenodd" clip-rule="evenodd" d="M51.3363 27.9126C50.9319 27.9126 50.5672 28.1562 50.4125 28.5299L48.7332 32.5837C48.2689 33.7047 47.175 34.4356 45.9616 34.4356H32.5618C32.0096 34.4356 31.5618 33.9878 31.5618 33.4356C31.5618 32.8833 32.0096 32.4356 32.5618 32.4356H45.9616C46.3661 32.4356 46.7307 32.1919 46.8855 31.8183L48.5647 27.7645C49.0291 26.6435 50.123 25.9126 51.3363 25.9126H54C54.5523 25.9126 55 26.3603 55 26.9126C55 27.4649 54.5523 27.9126 54 27.9126H51.3363Z" fill="#35291B"/>
<path fill-rule="evenodd" clip-rule="evenodd" d="M45.2979 35.4356C45.8502 35.4356 46.2979 35.8833 46.2979 36.4356V43.6548C46.2979 44.5725 45.6733 45.3725 44.783 45.5951L42.2979 46.2163V55.4356C42.2979 55.9878 41.8502 56.4356 41.2979 56.4356C40.7457 56.4356 40.2979 55.9878 40.2979 55.4356V46.2163C40.2979 45.2986 40.9225 44.4986 41.8129 44.2761L44.2979 43.6548V36.4356C44.2979 35.8833 44.7457 35.4356 45.2979 35.4356Z" fill="#35291B"/>
<path d="M12 18C12 13.5817 15.5817 10 20 10V56C15.5817 56 12 52.4183 12 48V18Z" fill="#CFBBAF"/>
<path d="M31.9999 16.7024C32.5522 16.7024 32.9999 17.1501 32.9999 17.7024V19.9573L37.2565 23.8923C38.7112 25.2371 40.9555 25.2371 42.4102 23.8923C44.0593 22.3678 44.0316 19.7527 42.3506 18.2635L27.6631 5.2515C27.2497 4.88527 26.6177 4.9235 26.2515 5.33689C25.8853 5.75028 25.9235 6.38229 26.3369 6.74852L41.0243 19.7605C41.8197 20.4651 41.8328 21.7024 41.0525 22.4237C40.3643 23.06 39.3024 23.06 38.6141 22.4237L24.6788 9.54126C24.2733 9.16636 23.6406 9.1912 23.2657 9.59674C23.1557 9.7157 23.0802 9.85421 23.0385 10H24.4706L31.249 17.042C31.4322 16.8338 31.7007 16.7024 31.9999 16.7024Z" fill="#35291B"/>
<path d="M32.9999 17.7024C32.9999 17.1501 32.5522 16.7024 31.9999 16.7024C31.7007 16.7024 31.4322 16.8338 31.249 17.042L32 17.8222V19.033L32.9999 19.9573V17.7024Z" fill="#35291B"/>
<path d="M42.2979 36.4356C42.2979 35.8833 41.8502 35.4356 41.2979 35.4356C40.7457 35.4356 40.2979 35.8833 40.2979 36.4356V37.4356H42.2979V36.4356Z" fill="#35291B"/>
<path fill-rule="evenodd" clip-rule="evenodd" d="M23.0385 10C22.9381 10.3513 23.0346 10.7449 23.3212 11.0099L30.9999 18.1084V55.3608C30.9999 55.9131 31.4476 56.3608 31.9999 56.3608C32.5522 56.3608 32.9999 55.9131 32.9999 55.3608V37.4356H40.2979V40.6548L37.8129 41.2761C36.9225 41.4986 36.2979 42.2986 36.2979 43.2163V55.4356C36.2979 55.9878 36.7457 56.4356 37.2979 56.4356C37.8502 56.4356 38.2979 55.9878 38.2979 55.4356V43.2163L40.783 42.5951C41.6733 42.3725 42.2979 41.5725 42.2979 40.6548V37.4356H48.0549C49.1967 37.4356 50.2394 36.7875 50.7449 35.7638L54.8967 27.3553C55.1412 26.8601 54.9379 26.2605 54.4427 26.016C53.9475 25.7714 53.3479 25.9747 53.1033 26.4699L48.9516 34.8783C48.7831 35.2195 48.4355 35.4356 48.0549 35.4356H41.2979H32.9999V19.9573L32 19.033V17.8222L31.249 17.042L24.4706 10H23.0385ZM32.9999 35.4356H32V37.4356H32.9999V35.4356ZM41.2979 35.4356C41.8502 35.4356 42.2979 35.8833 42.2979 36.4356V37.4356H40.2979V36.4356C40.2979 35.8833 40.7457 35.4356 41.2979 35.4356Z" fill="#35291B"/>
<path d="M32 35.4356V37.4356H32.9999V35.4356H32Z" fill="#35291B"/>
</svg>
