<svg width="64" height="64" viewBox="0 0 64 64" fill="none" xmlns="http://www.w3.org/2000/svg">
<path fill-rule="evenodd" clip-rule="evenodd" d="M14 8C14 5.42267 16.0893 3.33334 18.6667 3.33334H32C34.5773 3.33334 36.6667 5.42267 36.6667 8C36.6667 10.5773 34.5773 12.6667 32 12.6667H18.6667C16.0893 12.6667 14 10.5773 14 8ZM18.6667 7.33334C18.2985 7.33334 18 7.63181 18 8C18 8.36819 18.2985 8.66667 18.6667 8.66667H32C32.3682 8.66667 32.6667 8.36819 32.6667 8C32.6667 7.63181 32.3682 7.33334 32 7.33334H18.6667Z" fill="#35291B"/>
<path fill-rule="evenodd" clip-rule="evenodd" d="M3.33334 24C3.33334 21.4227 5.42268 19.3333 8.00001 19.3333H42.6667C45.244 19.3333 47.3333 21.4227 47.3333 24C47.3333 26.5773 45.244 28.6667 42.6667 28.6667H8.00001C5.42268 28.6667 3.33334 26.5773 3.33334 24ZM8.00001 23.3333C7.63182 23.3333 7.33334 23.6318 7.33334 24C7.33334 24.3682 7.63182 24.6667 8.00001 24.6667H42.6667C43.0349 24.6667 43.3333 24.3682 43.3333 24C43.3333 23.6318 43.0349 23.3333 42.6667 23.3333H8.00001Z" fill="#35291B"/>
<path fill-rule="evenodd" clip-rule="evenodd" d="M8.66668 16C8.66668 11.9499 11.9499 8.66667 16 8.66667H34.6667C38.7168 8.66667 42 11.9499 42 16C42 20.0501 38.7168 23.3333 34.6667 23.3333H16C11.9499 23.3333 8.66668 20.0501 8.66668 16ZM16 12.6667C14.1591 12.6667 12.6667 14.1591 12.6667 16C12.6667 17.841 14.1591 19.3333 16 19.3333H34.6667C36.5076 19.3333 38 17.841 38 16C38 14.1591 36.5076 12.6667 34.6667 12.6667H16Z" fill="#35291B"/>
<path fill-rule="evenodd" clip-rule="evenodd" d="M8.66668 32.8889C8.66668 28.3479 12.3479 24.6667 16.8889 24.6667H33.7778C38.3188 24.6667 42 28.3479 42 32.8889C42 40.8663 35.533 47.3333 27.5556 47.3333H23.1111C15.1337 47.3333 8.66668 40.8663 8.66668 32.8889ZM16.8889 28.6667C14.557 28.6667 12.6667 30.557 12.6667 32.8889C12.6667 38.6572 17.3428 43.3333 23.1111 43.3333H27.5556C33.3239 43.3333 38 38.6572 38 32.8889C38 30.557 36.1097 28.6667 33.7778 28.6667H16.8889Z" fill="#35291B"/>
<path fill-rule="evenodd" clip-rule="evenodd" d="M38.6667 33.3333C38.6667 32.597 39.2636 32 40 32C43.7922 32 46.3028 32.6006 48.1024 33.636C49.922 34.6829 50.8588 36.0924 51.6216 37.279C51.6432 37.3127 51.6647 37.3461 51.6861 37.3794C52.4312 38.5392 52.9938 39.4149 54.0361 40.0884C55.0958 40.7732 56.8098 41.3333 60 41.3333C60.7364 41.3333 61.3333 41.9303 61.3333 42.6667C61.3333 43.403 60.7364 44 60 44C56.5236 44 54.2376 43.3935 52.5889 42.3282C51.0493 41.3334 50.204 40.0115 49.5078 38.9229C49.4641 38.8546 49.4211 38.7873 49.3784 38.721C48.6413 37.5743 47.9947 36.6505 46.7726 35.9474C45.5306 35.2328 43.5412 34.6667 40 34.6667C39.2636 34.6667 38.6667 34.0697 38.6667 33.3333Z" fill="#35291B"/>
<path fill-rule="evenodd" clip-rule="evenodd" d="M38.6667 37.3333C38.6667 36.597 39.2636 36 40 36C42.8665 36 44.7159 36.6313 46.0552 37.7793C46.7005 38.3324 47.1711 38.9587 47.562 39.5579C47.7562 39.8556 47.9386 40.1592 48.1093 40.4438L48.1227 40.4662C48.2923 40.7489 48.4518 41.015 48.6216 41.279C49.2894 42.3179 50.078 43.2694 51.6315 44.0025C53.2378 44.7605 55.7677 45.3333 60 45.3333C60.7364 45.3333 61.3333 45.9303 61.3333 46.6667C61.3333 47.403 60.7364 48 60 48C55.5656 48 52.5956 47.4061 50.4935 46.4141C48.3387 45.3973 47.2106 44.0155 46.3784 42.721C46.1858 42.4213 46.0072 42.1235 45.843 41.8498L45.8224 41.8154C45.6487 41.5257 45.4912 41.2642 45.3286 41.015C45.006 40.5204 44.6954 40.1259 44.3198 39.804C43.6175 39.2021 42.4669 38.6667 40 38.6667C39.2636 38.6667 38.6667 38.0697 38.6667 37.3333Z" fill="#35291B"/>
<path fill-rule="evenodd" clip-rule="evenodd" d="M14 50.6667C14 46.6166 17.2833 43.3333 21.3333 43.3333H29.3333C33.3834 43.3333 36.6667 46.6166 36.6667 50.6667V53.3333C36.6667 57.3834 33.3834 60.6667 29.3333 60.6667H21.3333C17.2833 60.6667 14 57.3834 14 53.3333V50.6667ZM21.3333 47.3333C19.4924 47.3333 18 48.8257 18 50.6667V53.3333C18 55.1743 19.4924 56.6667 21.3333 56.6667H29.3333C31.1743 56.6667 32.6667 55.1743 32.6667 53.3333V50.6667C32.6667 48.8257 31.1743 47.3333 29.3333 47.3333H21.3333Z" fill="#35291B"/>
</svg>
