<svg width="64" height="64" viewBox="0 0 64 64" fill="none" xmlns="http://www.w3.org/2000/svg">
<path fill-rule="evenodd" clip-rule="evenodd" d="M44 14H20C16.6863 14 14 16.6863 14 20V44C14 47.3137 16.6863 50 20 50H44C47.3137 50 50 47.3137 50 44V20C50 16.6863 47.3137 14 44 14ZM20 12C15.5817 12 12 15.5817 12 20V44C12 48.4183 15.5817 52 20 52H44C48.4183 52 52 48.4183 52 44V20C52 15.5817 48.4183 12 44 12H20Z" fill="#35291B"/>
<path fill-rule="evenodd" clip-rule="evenodd" d="M26.7071 12.2929C27.0976 12.6834 27.0976 13.3166 26.7071 13.7071L13.7071 26.7071C13.3166 27.0976 12.6834 27.0976 12.2929 26.7071C11.9024 26.3166 11.9024 25.6834 12.2929 25.2929L25.2929 12.2929C25.6834 11.9024 26.3166 11.9024 26.7071 12.2929Z" fill="#35291B"/>
<path fill-rule="evenodd" clip-rule="evenodd" d="M42.7071 12.2929C43.0976 12.6834 43.0976 13.3166 42.7071 13.7071L13.7071 42.7071C13.3166 43.0976 12.6834 43.0976 12.2929 42.7071C11.9024 42.3166 11.9024 41.6834 12.2929 41.2929L41.2929 12.2929C41.6834 11.9024 42.3166 11.9024 42.7071 12.2929Z" fill="#35291B"/>
<path fill-rule="evenodd" clip-rule="evenodd" d="M51.7071 19.2929C52.0976 19.6834 52.0976 20.3166 51.7071 20.7071L20.7071 51.7071C20.3166 52.0976 19.6834 52.0976 19.2929 51.7071C18.9024 51.3166 18.9024 50.6834 19.2929 50.2929L50.2929 19.2929C50.6834 18.9024 51.3166 18.9024 51.7071 19.2929Z" fill="#35291B"/>
<path fill-rule="evenodd" clip-rule="evenodd" d="M51.7071 35.2929C52.0976 35.6834 52.0976 36.3166 51.7071 36.7071L36.7071 51.7071C36.3166 52.0976 35.6834 52.0976 35.2929 51.7071C34.9024 51.3166 34.9024 50.6834 35.2929 50.2929L50.2929 35.2929C50.6834 34.9024 51.3166 34.9024 51.7071 35.2929Z" fill="#35291B"/>
<path fill-rule="evenodd" clip-rule="evenodd" d="M32 24L24 16L25.4142 14.5858L33.4142 22.5858L32 24Z" fill="#35291B"/>
<path fill-rule="evenodd" clip-rule="evenodd" d="M22 48L14 40L15.4142 38.5858L23.4142 46.5858L22 48Z" fill="#35291B"/>
<path fill-rule="evenodd" clip-rule="evenodd" d="M46 26L38 18L39.4142 16.5858L47.4142 24.5858L46 26Z" fill="#35291B"/>
<path fill-rule="evenodd" clip-rule="evenodd" d="M40 48L32 40L33.4142 38.5858L41.4142 46.5858L40 48Z" fill="#35291B"/>
<path fill-rule="evenodd" clip-rule="evenodd" d="M50 48L44 42L45.4142 40.5858L51.4142 46.5858L50 48Z" fill="#35291B"/>
</svg>
