<svg width="64" height="64" viewBox="0 0 64 64" fill="none" xmlns="http://www.w3.org/2000/svg">
<path fill-rule="evenodd" clip-rule="evenodd" d="M13 48C13 47.4477 13.4477 47 14 47L54 47C54.5523 47 55 47.4477 55 48C55 48.5523 54.5523 49 54 49L14 49C13.4477 49 13 48.5523 13 48Z" fill="#35291B"/>
<path fill-rule="evenodd" clip-rule="evenodd" d="M11.1941 25.7556C14.3669 29.2302 16.6455 32.3202 18.3378 35.7496C20.0551 39.2295 21.1919 43.1064 22.0129 48.1604C22.1015 48.7055 22.6152 49.0756 23.1604 48.9871C23.7055 48.8985 24.0756 48.3848 23.9871 47.8397C23.1446 42.654 21.9613 38.5728 20.1314 34.8645C18.3018 31.157 15.8492 27.8695 12.5247 24.2472C11.7761 23.4315 10.7094 23.4519 9.9915 23.9371C9.28136 24.4171 8.85988 25.3833 9.2865 26.3811C13.0477 35.1775 14.4498 40.6748 13.0195 47.8033C12.9109 48.3448 13.2618 48.8718 13.8033 48.9805C14.3448 49.0891 14.8718 48.7382 14.9805 48.1967C16.5214 40.5168 14.9581 34.5856 11.1941 25.7556Z" fill="#35291B"/>
<path fill-rule="evenodd" clip-rule="evenodd" d="M16.048 17.7166C16.0493 17.7213 16.0518 17.7282 16.0562 17.7377C19.4661 25.0993 21.2954 31.2543 21.9967 39.9193C22.0413 40.4698 21.6312 40.9522 21.0807 40.9968C20.5302 41.0413 20.0478 40.6312 20.0033 40.0807C19.3231 31.678 17.5643 25.752 14.2414 18.5783C13.7296 17.4733 14.2873 16.4443 15.0332 15.9763C15.7867 15.5036 16.9745 15.4596 17.7138 16.4663C25.7002 27.3412 30.2517 35.4591 34.9334 47.6413C35.1316 48.1568 34.8743 48.7353 34.3587 48.9335C33.8432 49.1316 33.2647 48.8743 33.0666 48.3588C28.4558 36.3614 23.9957 28.4004 16.1107 17.6623C16.1061 17.6646 16.1013 17.6673 16.0962 17.6705C16.0798 17.6807 16.0664 17.6928 16.057 17.7041C16.0526 17.7093 16.0498 17.7136 16.048 17.7166Z" fill="#35291B"/>
<path fill-rule="evenodd" clip-rule="evenodd" d="M23.2678 13.2434C28.9117 20.6066 32.2118 29.8125 37.0325 48.2529C37.1722 48.7873 37.7186 49.1072 38.2529 48.9675C38.7872 48.8278 39.1072 48.2814 38.9675 47.7471C33.9975 28.7358 30.5608 19.1504 24.2835 11.2964C23.615 10.46 22.5715 10.3535 21.8128 10.8397C21.0745 11.3128 20.7146 12.2743 21.1056 13.2333C24.8058 22.3106 26.2156 27.4124 27.0069 34.1172C27.0716 34.6657 27.5687 35.0579 28.1172 34.9931C28.6657 34.9284 29.0578 34.4313 28.9931 33.8828C28.1974 27.1402 26.7839 21.9612 23.2678 13.2434Z" fill="#35291B"/>
<path fill-rule="evenodd" clip-rule="evenodd" d="M37.1953 14.2171C37.1731 14.2329 37.151 14.2488 37.1288 14.265C37.1228 14.2555 37.1146 14.2456 37.1046 14.2372C37.0965 14.2304 37.0919 14.2284 37.0919 14.2285C37.0918 14.2285 37.0985 14.2317 37.1138 14.2331C37.129 14.2346 37.1477 14.2336 37.1668 14.2285C37.1846 14.2238 37.1943 14.2177 37.1953 14.2171ZM37.1388 14.2854C37.1368 14.2793 37.1334 14.2723 37.1288 14.265C35.6615 15.3333 34.2272 17.2313 31.952 24.3062C31.7829 24.8319 31.2196 25.1211 30.6939 24.952C30.1681 24.7829 29.8789 24.2196 30.048 23.6939C32.3669 16.4832 33.9681 14.0579 36.0363 12.5872C36.8615 12.0004 37.8058 12.2145 38.3906 12.7055C38.9632 13.1862 39.3309 14.0347 39.0396 14.9254C36.9803 21.222 36.34 26.4374 35.9994 36.0355C35.9798 36.5874 35.5165 37.019 34.9645 36.9994C34.4126 36.9798 33.981 36.5165 34.0006 35.9646C34.344 26.2913 34.9943 20.8605 37.1387 14.3037C37.1408 14.2972 37.1407 14.2946 37.1407 14.2944C37.1407 14.2937 37.1406 14.2909 37.1388 14.2854Z" fill="#35291B"/>
<path fill-rule="evenodd" clip-rule="evenodd" d="M54.4336 25.6626C52.3377 32.6488 51.6464 38.2765 53.0094 48.137C53.085 48.684 53.5899 49.0662 54.1369 48.9906C54.684 48.915 55.0662 48.4102 54.9906 47.8631C53.57 37.5866 54.4409 32.1796 56.8313 24.6818C57.1134 23.7972 56.7929 22.9003 56.0832 22.4552C55.7326 22.2354 55.2923 22.1358 54.8414 22.2337C54.3852 22.3327 54.0081 22.6133 53.7412 22.9922C51.6405 25.9733 49.1908 31.8386 44.0488 47.6915C43.8784 48.2168 44.1661 48.7808 44.6915 48.9512C45.2168 49.1216 45.7808 48.8339 45.9512 48.3086C50.3041 34.8883 52.6675 28.8404 54.4336 25.6626Z" fill="#35291B"/>
<path fill-rule="evenodd" clip-rule="evenodd" d="M48.8851 14.3844C45.2376 26.1885 43.9317 33.1248 46.0318 41.2503C46.17 41.785 46.7155 42.1064 47.2502 41.9682C47.7849 41.83 48.1064 41.2845 47.9682 40.7498C46.0144 33.1904 47.1664 26.7124 50.8132 14.9191C51.4008 13.0187 49.0719 11.3979 47.5429 12.8993C44.6437 15.746 42.278 18.4861 40.128 22.142C37.984 25.7877 36.0757 30.3079 34.0469 36.6974C33.8798 37.2238 34.171 37.786 34.6974 37.9531C35.2237 38.1203 35.786 37.829 35.9531 37.3027C37.9572 30.9912 39.8118 26.625 41.852 23.1558C43.8718 19.7212 46.0943 17.1303 48.8851 14.3844Z" fill="#35291B"/>
</svg>
