<svg width="64" height="64" viewBox="0 0 64 64" fill="none" xmlns="http://www.w3.org/2000/svg">
<path fill-rule="evenodd" clip-rule="evenodd" d="M9.16665 15.3334C9.16665 8.98208 14.3154 3.83336 20.6666 3.83336H40.6666C47.0179 3.83336 52.1666 8.98208 52.1666 15.3334V48.6667C52.1666 55.018 47.0179 60.1667 40.6666 60.1667H20.6666C14.3154 60.1667 9.16665 55.018 9.16665 48.6667V15.3334ZM20.6666 6.83336C15.9722 6.83336 12.1666 10.6389 12.1666 15.3334V42.6667H29.3333L29.3333 6.83336H20.6666ZM32.3333 6.83336L32.3333 42.6667H49.1666V15.3334C49.1666 10.6389 45.3611 6.83336 40.6666 6.83336H32.3333ZM49.1666 45.6667H12.1666V48.6667C12.1666 53.3611 15.9722 57.1667 20.6666 57.1667H40.6666C45.3611 57.1667 49.1666 53.3611 49.1666 48.6667V45.6667ZM14.5 23.3334C14.5 21.4004 16.067 19.8334 18 19.8334H22C23.933 19.8334 25.5 21.4004 25.5 23.3334V27.3334C25.5 29.2664 23.933 30.8334 22 30.8334H18C16.067 30.8334 14.5 29.2664 14.5 27.3334V23.3334ZM18 22.8334C17.7238 22.8334 17.5 23.0572 17.5 23.3334V27.3334C17.5 27.6095 17.7238 27.8334 18 27.8334H22C22.2761 27.8334 22.5 27.6095 22.5 27.3334V23.3334C22.5 23.0572 22.2761 22.8334 22 22.8334H18Z" fill="#35291B"/>
</svg>
