<svg width="64" height="64" viewBox="0 0 64 64" fill="none" xmlns="http://www.w3.org/2000/svg">
<path fill-rule="evenodd" clip-rule="evenodd" d="M4 22.1765C4 15.4516 9.37258 10 16 10H48C54.6274 10 60 15.4516 60 22.1765V43.8235C60 50.5484 54.6274 56 48 56H16C9.37258 56 4 50.5484 4 43.8235V22.1765ZM16 12.7059C10.8453 12.7059 6.66667 16.946 6.66667 22.1765V43.8235C6.66667 49.054 10.8453 53.2941 16 53.2941H48C53.1547 53.2941 57.3333 49.054 57.3333 43.8235V22.1765C57.3333 16.946 53.1547 12.7059 48 12.7059H16Z" fill="#35291B"/>
<path fill-rule="evenodd" clip-rule="evenodd" d="M17.3333 18.1176C14.3878 18.1176 12 20.5406 12 23.5294C12 26.5182 14.3878 28.9412 17.3333 28.9412C20.2789 28.9412 22.6667 26.5182 22.6667 23.5294C22.6667 20.5406 20.2789 18.1176 17.3333 18.1176ZM9.33333 23.5294C9.33333 19.0462 12.9151 15.4118 17.3333 15.4118C21.7516 15.4118 25.3333 19.0462 25.3333 23.5294C25.3333 28.0127 21.7516 31.6471 17.3333 31.6471C12.9151 31.6471 9.33333 28.0127 9.33333 23.5294Z" fill="#35291B"/>
<path fill-rule="evenodd" clip-rule="evenodd" d="M24 42.4706C24 46.2066 21.0152 49.2353 17.3333 49.2353C13.6514 49.2353 10.6667 46.2066 10.6667 42.4706C10.6667 38.7345 13.6514 35.7059 17.3333 35.7059C21.0152 35.7059 24 38.7345 24 42.4706ZM17.3333 46.5294C19.5425 46.5294 21.3333 44.7122 21.3333 42.4706C21.3333 40.229 19.5425 38.4118 17.3333 38.4118C15.1242 38.4118 13.3333 40.229 13.3333 42.4706C13.3333 44.7122 15.1242 46.5294 17.3333 46.5294Z" fill="#35291B"/>
<path fill-rule="evenodd" clip-rule="evenodd" d="M42.6667 23.5294C42.6667 27.2655 39.6819 30.2941 36 30.2941C32.3181 30.2941 29.3333 27.2655 29.3333 23.5294C29.3333 19.7934 32.3181 16.7647 36 16.7647C39.6819 16.7647 42.6667 19.7934 42.6667 23.5294ZM36 27.5882C38.2091 27.5882 40 25.771 40 23.5294C40 21.2878 38.2091 19.4706 36 19.4706C33.7909 19.4706 32 21.2878 32 23.5294C32 25.771 33.7909 27.5882 36 27.5882Z" fill="#35291B"/>
<path fill-rule="evenodd" clip-rule="evenodd" d="M52 24.8824C52.7364 24.8824 53.3333 25.4881 53.3333 26.2353V28.9412C53.3333 29.6884 52.7364 30.2941 52 30.2941C51.2636 30.2941 50.6667 29.6884 50.6667 28.9412V26.2353C50.6667 25.4881 51.2636 24.8824 52 24.8824Z" fill="#35291B"/>
<path fill-rule="evenodd" clip-rule="evenodd" d="M17.3333 24.8824C18.0697 24.8824 18.6667 25.4881 18.6667 26.2353V28.9412C18.6667 29.6884 18.0697 30.2941 17.3333 30.2941C16.597 30.2941 16 29.6884 16 28.9412V26.2353C16 25.4881 16.597 24.8824 17.3333 24.8824Z" fill="#35291B"/>
<path fill-rule="evenodd" clip-rule="evenodd" d="M17.3333 16.7647C18.0697 16.7647 18.6667 17.3704 18.6667 18.1176V20.8235C18.6667 21.5707 18.0697 22.1765 17.3333 22.1765C16.597 22.1765 16 21.5707 16 20.8235V18.1176C16 17.3704 16.597 16.7647 17.3333 16.7647Z" fill="#35291B"/>
<path fill-rule="evenodd" clip-rule="evenodd" d="M18.6667 23.5294C18.6667 22.7822 19.2636 22.1765 20 22.1765H22.6667C23.403 22.1765 24 22.7822 24 23.5294C24 24.2766 23.403 24.8824 22.6667 24.8824H20C19.2636 24.8824 18.6667 24.2766 18.6667 23.5294Z" fill="#35291B"/>
<path fill-rule="evenodd" clip-rule="evenodd" d="M10.6667 23.5294C10.6667 22.7822 11.2636 22.1765 12 22.1765H14.6667C15.403 22.1765 16 22.7822 16 23.5294C16 24.2766 15.403 24.8824 14.6667 24.8824H12C11.2636 24.8824 10.6667 24.2766 10.6667 23.5294Z" fill="#35291B"/>
<path fill-rule="evenodd" clip-rule="evenodd" d="M36 37.0588C33.0545 37.0588 30.6667 39.4818 30.6667 42.4706C30.6667 45.4594 33.0545 47.8824 36 47.8824C38.9455 47.8824 41.3333 45.4594 41.3333 42.4706C41.3333 39.4818 38.9455 37.0588 36 37.0588ZM28 42.4706C28 37.9873 31.5817 34.3529 36 34.3529C40.4183 34.3529 44 37.9873 44 42.4706C44 46.9538 40.4183 50.5882 36 50.5882C31.5817 50.5882 28 46.9538 28 42.4706Z" fill="#35291B"/>
<path fill-rule="evenodd" clip-rule="evenodd" d="M36 43.8235C36.7364 43.8235 37.3333 44.4293 37.3333 45.1765V47.8824C37.3333 48.6296 36.7364 49.2353 36 49.2353C35.2636 49.2353 34.6667 48.6296 34.6667 47.8824V45.1765C34.6667 44.4293 35.2636 43.8235 36 43.8235Z" fill="#35291B"/>
<path fill-rule="evenodd" clip-rule="evenodd" d="M36 35.7059C36.7364 35.7059 37.3333 36.3116 37.3333 37.0588V39.7647C37.3333 40.5119 36.7364 41.1176 36 41.1176C35.2636 41.1176 34.6667 40.5119 34.6667 39.7647V37.0588C34.6667 36.3116 35.2636 35.7059 36 35.7059Z" fill="#35291B"/>
<path fill-rule="evenodd" clip-rule="evenodd" d="M37.3333 42.4706C37.3333 41.7234 37.9303 41.1176 38.6667 41.1176H41.3333C42.0697 41.1176 42.6667 41.7234 42.6667 42.4706C42.6667 43.2178 42.0697 43.8235 41.3333 43.8235H38.6667C37.9303 43.8235 37.3333 43.2178 37.3333 42.4706Z" fill="#35291B"/>
<path fill-rule="evenodd" clip-rule="evenodd" d="M29.3333 42.4706C29.3333 41.7234 29.9303 41.1176 30.6667 41.1176H33.3333C34.0697 41.1176 34.6667 41.7234 34.6667 42.4706C34.6667 43.2178 34.0697 43.8235 33.3333 43.8235H30.6667C29.9303 43.8235 29.3333 43.2178 29.3333 42.4706Z" fill="#35291B"/>
<path fill-rule="evenodd" clip-rule="evenodd" d="M17.3333 43.8235C18.0697 43.8235 18.6667 44.4293 18.6667 45.1765V47.8824C18.6667 48.6296 18.0697 49.2353 17.3333 49.2353C16.597 49.2353 16 48.6296 16 47.8824V45.1765C16 44.4293 16.597 43.8235 17.3333 43.8235Z" fill="#35291B"/>
<path fill-rule="evenodd" clip-rule="evenodd" d="M17.3333 35.7059C18.0697 35.7059 18.6667 36.3116 18.6667 37.0588V39.7647C18.6667 40.5119 18.0697 41.1176 17.3333 41.1176C16.597 41.1176 16 40.5119 16 39.7647V37.0588C16 36.3116 16.597 35.7059 17.3333 35.7059Z" fill="#35291B"/>
<path fill-rule="evenodd" clip-rule="evenodd" d="M18.6667 42.4706C18.6667 41.7234 19.2636 41.1176 20 41.1176H22.6667C23.403 41.1176 24 41.7234 24 42.4706C24 43.2178 23.403 43.8235 22.6667 43.8235H20C19.2636 43.8235 18.6667 43.2178 18.6667 42.4706Z" fill="#35291B"/>
<path fill-rule="evenodd" clip-rule="evenodd" d="M10.6667 42.4706C10.6667 41.7234 11.2636 41.1176 12 41.1176H14.6667C15.403 41.1176 16 41.7234 16 42.4706C16 43.2178 15.403 43.8235 14.6667 43.8235H12C11.2636 43.8235 10.6667 43.2178 10.6667 42.4706Z" fill="#35291B"/>
<path fill-rule="evenodd" clip-rule="evenodd" d="M36 24.8824C36.7364 24.8824 37.3333 25.4881 37.3333 26.2353V28.9412C37.3333 29.6884 36.7364 30.2941 36 30.2941C35.2636 30.2941 34.6667 29.6884 34.6667 28.9412V26.2353C34.6667 25.4881 35.2636 24.8824 36 24.8824Z" fill="#35291B"/>
<path fill-rule="evenodd" clip-rule="evenodd" d="M36 16.7647C36.7364 16.7647 37.3333 17.3704 37.3333 18.1176V20.8235C37.3333 21.5707 36.7364 22.1765 36 22.1765C35.2636 22.1765 34.6667 21.5707 34.6667 20.8235V18.1176C34.6667 17.3704 35.2636 16.7647 36 16.7647Z" fill="#35291B"/>
<path fill-rule="evenodd" clip-rule="evenodd" d="M37.3333 23.5294C37.3333 22.7822 37.9303 22.1765 38.6667 22.1765H41.3333C42.0697 22.1765 42.6667 22.7822 42.6667 23.5294C42.6667 24.2766 42.0697 24.8824 41.3333 24.8824H38.6667C37.9303 24.8824 37.3333 24.2766 37.3333 23.5294Z" fill="#35291B"/>
<path fill-rule="evenodd" clip-rule="evenodd" d="M29.3333 23.5294C29.3333 22.7822 29.9303 22.1765 30.6667 22.1765H33.3333C34.0697 22.1765 34.6667 22.7822 34.6667 23.5294C34.6667 24.2766 34.0697 24.8824 33.3333 24.8824H30.6667C29.9303 24.8824 29.3333 24.2766 29.3333 23.5294Z" fill="#35291B"/>
<path d="M53.3333 20.8235C53.3333 21.5707 52.7364 22.1765 52 22.1765C51.2636 22.1765 50.6667 21.5707 50.6667 20.8235C50.6667 20.0763 51.2636 19.4706 52 19.4706C52.7364 19.4706 53.3333 20.0763 53.3333 20.8235Z" fill="#35291B"/>
<path fill-rule="evenodd" clip-rule="evenodd" d="M52 38.4118C52.7364 38.4118 53.3333 39.0175 53.3333 39.7647V42.4706C53.3333 43.2178 52.7364 43.8235 52 43.8235C51.2636 43.8235 50.6667 43.2178 50.6667 42.4706V39.7647C50.6667 39.0175 51.2636 38.4118 52 38.4118Z" fill="#35291B"/>
<path d="M53.3333 34.3529C53.3333 35.1001 52.7364 35.7059 52 35.7059C51.2636 35.7059 50.6667 35.1001 50.6667 34.3529C50.6667 33.6057 51.2636 33 52 33C52.7364 33 53.3333 33.6057 53.3333 34.3529Z" fill="#35291B"/>
</svg>
