<svg width="64" height="64" viewBox="0 0 64 64" fill="none" xmlns="http://www.w3.org/2000/svg">
<path fill-rule="evenodd" clip-rule="evenodd" d="M37.6419 23.4483C34.9924 21.1011 31.0076 21.1011 28.3581 23.4483L10.9757 38.8479C10.1803 39.5525 10.1672 40.7898 10.9475 41.5111C11.6358 42.1474 12.6976 42.1474 13.3859 41.5111L26.8906 29.0267C30.3396 25.8383 35.6604 25.8383 39.1094 29.0267L52.6141 41.5111C53.3024 42.1474 54.3643 42.1474 55.0525 41.5111C55.8328 40.7898 55.8197 39.5525 55.0243 38.8479L37.6419 23.4483ZM27.0319 21.9513C30.4384 18.9334 35.5616 18.9334 38.9681 21.9513L56.3506 37.3509C58.0316 38.8401 58.0593 41.4552 56.4102 42.9797C54.9555 44.3245 52.7112 44.3245 51.2565 42.9797L37.7518 30.4953C35.0692 28.0155 30.9308 28.0155 28.2482 30.4953L14.7435 42.9797C13.2888 44.3245 11.0445 44.3245 9.58984 42.9797C7.94074 41.4552 7.96843 38.8401 9.64943 37.3509L27.0319 21.9513Z" fill="#35291B"/>
<path d="M28 35C28 34.4477 28.4477 34 29 34H31C31.5523 34 32 34.4477 32 35V37C32 37.5523 31.5523 38 31 38H29C28.4477 38 28 37.5523 28 37V35Z" fill="#35291B"/>
<path d="M34 35C34 34.4477 34.4477 34 35 34H37C37.5523 34 38 34.4477 38 35V37C38 37.5523 37.5523 38 37 38H35C34.4477 38 34 37.5523 34 37V35Z" fill="#35291B"/>
<path d="M28 41C28 40.4477 28.4477 40 29 40H31C31.5523 40 32 40.4477 32 41V43C32 43.5523 31.5523 44 31 44H29C28.4477 44 28 43.5523 28 43V41Z" fill="#35291B"/>
<path d="M34 41C34 40.4477 34.4477 40 35 40H37C37.5523 40 38 40.4477 38 41V43C38 43.5523 37.5523 44 37 44H35C34.4477 44 34 43.5523 34 43V41Z" fill="#35291B"/>
<path fill-rule="evenodd" clip-rule="evenodd" d="M43 21C43 19.8954 43.8954 19 45 19H50C51.1046 19 52 19.8954 52 21V27.8258C52 29.5345 49.9958 30.4563 48.6984 29.3443L43.6984 25.0586C43.2551 24.6786 43 24.1239 43 23.5401V21ZM50 21H45V23.5401L50 27.8258V21Z" fill="#35291B"/>
</svg>
