<svg width="64" height="64" viewBox="0 0 64 64" fill="none" xmlns="http://www.w3.org/2000/svg">
<path fill-rule="evenodd" clip-rule="evenodd" d="M36 6H28C25.7909 6 24 7.79086 24 10C24 12.2091 25.7909 14 28 14H36C38.2091 14 40 12.2091 40 10C40 7.79086 38.2091 6 36 6ZM28 4C24.6863 4 22 6.68629 22 10C22 13.3137 24.6863 16 28 16H36C39.3137 16 42 13.3137 42 10C42 6.68629 39.3137 4 36 4H28Z" fill="#35291B"/>
<path fill-rule="evenodd" clip-rule="evenodd" d="M51 36H13C11.3431 36 10 37.3431 10 39C10 40.6569 11.3431 42 13 42H51C52.6569 42 54 40.6569 54 39C54 37.3431 52.6569 36 51 36ZM13 34C10.2386 34 8 36.2386 8 39C8 41.7614 10.2386 44 13 44H51C53.7614 44 56 41.7614 56 39C56 36.2386 53.7614 34 51 34H13Z" fill="#35291B"/>
<path d="M29 39C29 39.5523 28.5523 40 28 40C27.4477 40 27 39.5523 27 39C27 38.4477 27.4477 38 28 38C28.5523 38 29 38.4477 29 39Z" fill="#35291B"/>
<path d="M37 39C37 39.5523 36.5523 40 36 40C35.4477 40 35 39.5523 35 39C35 38.4477 35.4477 38 36 38C36.5523 38 37 38.4477 37 39Z" fill="#35291B"/>
<path d="M33 39C33 39.5523 32.5523 40 32 40C31.4477 40 31 39.5523 31 39C31 38.4477 31.4477 38 32 38C32.5523 38 33 38.4477 33 39Z" fill="#35291B"/>
<path fill-rule="evenodd" clip-rule="evenodd" d="M26.0033 46C25.2708 45.3192 25.2705 45.3195 25.2705 45.3195L25.267 45.3232L25.2603 45.3306L25.2381 45.3549C25.2197 45.3753 25.1939 45.4041 25.1618 45.4406C25.0978 45.5135 25.0086 45.6175 24.9027 45.7471C24.692 46.005 24.4106 46.3703 24.1303 46.7982C23.6089 47.5945 22.9369 48.8342 23.0048 50.0555C23.0861 51.5196 24.1803 52.2908 24.8418 52.7571C24.8703 52.7772 24.898 52.7967 24.9248 52.8157C25.7223 53.3812 25.9813 53.6331 26.0048 54.0555C26.0338 54.578 25.7058 55.3383 25.203 56.1061C24.9711 56.4602 24.7344 56.7679 24.555 56.9875C24.4658 57.0967 24.3919 57.1826 24.3417 57.2399C24.3165 57.2685 24.2974 57.2899 24.2852 57.3034L24.2723 57.3175L24.2708 57.3192C23.8955 57.7238 23.9182 58.3567 24.3225 58.7325C24.727 59.1085 25.3598 59.0853 25.7358 58.6808L25.0033 58C25.7358 58.6808 25.7358 58.6808 25.7358 58.6808L25.7372 58.6792L25.7395 58.6768L25.7462 58.6694L25.7684 58.6451C25.7868 58.6247 25.8126 58.5959 25.8447 58.5594C25.9087 58.4865 25.9979 58.3825 26.1038 58.2529C26.3145 57.995 26.596 57.6297 26.8762 57.2018C27.3976 56.4055 28.0696 55.1658 28.0017 53.9445C27.9204 52.4804 26.8263 51.7092 26.1647 51.2429C26.1362 51.2228 26.1085 51.2033 26.0817 51.1843C25.2842 50.6188 25.0252 50.3669 25.0017 49.9445C24.9727 49.422 25.3007 48.6617 25.8035 47.8939C26.0354 47.5398 26.2721 47.2321 26.4515 47.0125C26.5408 46.9033 26.6146 46.8174 26.6649 46.7601C26.69 46.7315 26.7091 46.7101 26.7213 46.6966L26.7342 46.6825L26.736 46.6805C27.1114 46.2759 27.0884 45.6433 26.684 45.2675C26.2795 44.8915 25.6464 44.915 25.2705 45.3195L26.0033 46Z" fill="#35291B"/>
<path fill-rule="evenodd" clip-rule="evenodd" d="M38.0033 46C37.2708 45.3192 37.2705 45.3195 37.2705 45.3195L37.267 45.3232L37.2603 45.3306L37.2381 45.3549C37.2197 45.3753 37.1939 45.4041 37.1618 45.4406C37.0978 45.5135 37.0086 45.6175 36.9027 45.7471C36.692 46.005 36.4106 46.3703 36.1303 46.7982C35.6089 47.5945 34.9369 48.8342 35.0048 50.0555C35.0861 51.5196 36.1803 52.2908 36.8418 52.7571C36.8703 52.7772 36.898 52.7967 36.9248 52.8157C37.7223 53.3812 37.9813 53.6331 38.0048 54.0555C38.0338 54.578 37.7058 55.3383 37.203 56.1061C36.9711 56.4602 36.7344 56.7679 36.555 56.9875C36.4657 57.0967 36.3919 57.1826 36.3417 57.2399C36.3165 57.2685 36.2974 57.2899 36.2852 57.3034L36.2723 57.3175L36.2708 57.3192C35.8955 57.7238 35.9182 58.3567 36.3225 58.7325C36.727 59.1085 37.3598 59.0853 37.7358 58.6808L37.0033 58C37.7358 58.6808 37.7358 58.6808 37.7358 58.6808L37.7372 58.6792L37.7395 58.6768L37.7462 58.6694L37.7684 58.6451C37.7868 58.6247 37.8126 58.5959 37.8447 58.5594C37.9087 58.4865 37.9979 58.3825 38.1038 58.2529C38.3145 57.995 38.596 57.6297 38.8762 57.2018C39.3976 56.4055 40.0696 55.1658 40.0017 53.9445C39.9204 52.4804 38.8263 51.7092 38.1647 51.2429C38.1362 51.2228 38.1085 51.2033 38.0817 51.1843C37.2842 50.6188 37.0252 50.3669 37.0017 49.9445C36.9727 49.422 37.3007 48.6617 37.8035 47.8939C38.0354 47.5398 38.2721 47.2321 38.4515 47.0125C38.5408 46.9033 38.6146 46.8174 38.6649 46.7601C38.69 46.7315 38.7091 46.7101 38.7213 46.6966L38.7342 46.6825L38.736 46.6805C39.1114 46.2759 39.0884 45.6433 38.684 45.2675C38.2795 44.8915 37.6464 44.915 37.2705 45.3195L38.0033 46Z" fill="#35291B"/>
<path fill-rule="evenodd" clip-rule="evenodd" d="M32.0033 46C31.2708 45.3192 31.2705 45.3195 31.2705 45.3195L31.267 45.3232L31.2603 45.3306L31.2381 45.3549C31.2197 45.3753 31.1939 45.4041 31.1618 45.4406C31.0978 45.5135 31.0086 45.6175 30.9027 45.7471C30.692 46.005 30.4106 46.3703 30.1303 46.7982C29.6089 47.5945 28.9369 48.8342 29.0048 50.0555C29.0861 51.5196 30.1803 52.2908 30.8418 52.7571C30.8703 52.7772 30.898 52.7967 30.9248 52.8157C31.7223 53.3812 31.9813 53.6331 32.0048 54.0555C32.0338 54.578 31.7058 55.3383 31.203 56.1061C30.9711 56.4602 30.7344 56.7679 30.555 56.9875C30.4658 57.0967 30.3919 57.1826 30.3417 57.2399C30.3165 57.2685 30.2974 57.2899 30.2852 57.3034L30.2723 57.3175L30.2708 57.3192C29.8955 57.7238 29.9182 58.3567 30.3225 58.7325C30.727 59.1085 31.3598 59.0853 31.7358 58.6808L31.0033 58C31.7358 58.6808 31.7358 58.6808 31.7358 58.6808L31.7372 58.6792L31.7395 58.6768L31.7462 58.6694L31.7684 58.6451C31.7868 58.6247 31.8126 58.5959 31.8447 58.5594C31.9087 58.4865 31.9979 58.3825 32.1038 58.2529C32.3145 57.995 32.596 57.6297 32.8762 57.2018C33.3976 56.4055 34.0696 55.1658 34.0017 53.9445C33.9204 52.4804 32.8263 51.7092 32.1647 51.2429C32.1362 51.2228 32.1085 51.2033 32.0817 51.1843C31.2842 50.6188 31.0252 50.3669 31.0017 49.9445C30.9727 49.422 31.3007 48.6617 31.8035 47.8939C32.0354 47.5398 32.2721 47.2321 32.4515 47.0125C32.5408 46.9033 32.6146 46.8174 32.6649 46.7601C32.69 46.7315 32.7091 46.7101 32.7213 46.6966L32.7342 46.6825L32.736 46.6805C33.1114 46.2759 33.0884 45.6433 32.684 45.2675C32.2795 44.8915 31.6464 44.915 31.2705 45.3195L32.0033 46Z" fill="#35291B"/>
<path fill-rule="evenodd" clip-rule="evenodd" d="M22.6723 20.2759C24.1162 18.2663 25 16.2181 25 14H27C27 16.7819 25.8838 19.2337 24.2965 21.4429C22.7168 23.6415 20.6172 25.671 18.5597 27.6038C18.3374 27.8126 18.1157 28.0202 17.8951 28.2268C16.0452 29.9591 14.2696 31.6219 12.8488 33.3403C11.2618 35.2598 10.2128 37.1405 9.99388 39.1104L8.00611 38.8896C8.28724 36.3595 9.61316 34.1152 11.3074 32.0659C12.8153 30.2421 14.6902 28.4871 16.5244 26.7703C16.7472 26.5617 16.9694 26.3537 17.1903 26.1462C19.2578 24.204 21.2207 22.296 22.6723 20.2759Z" fill="#35291B"/>
<path fill-rule="evenodd" clip-rule="evenodd" d="M41.3277 20.2759C39.8838 18.2663 39 16.2181 39 14H37C37 16.7819 38.1162 19.2337 39.7035 21.4429C41.2832 23.6415 43.3828 25.671 45.4403 27.6038C45.6626 27.8126 45.8843 28.0202 46.1049 28.2268C47.9548 29.9591 49.7304 31.6219 51.1512 33.3403C52.7382 35.2598 53.7872 37.1405 54.0061 39.1104L55.9939 38.8896C55.7128 36.3595 54.3868 34.1152 52.6926 32.0659C51.1847 30.2421 49.3098 28.4871 47.4756 26.7703C47.2528 26.5617 47.0306 26.3537 46.8097 26.1462C44.7422 24.204 42.7793 22.296 41.3277 20.2759Z" fill="#35291B"/>
</svg>
