<svg width="64" height="64" viewBox="0 0 64 64" fill="none" xmlns="http://www.w3.org/2000/svg">
<path fill-rule="evenodd" clip-rule="evenodd" d="M48.8089 10.4568C48.0809 10.7583 47.4195 11.2003 46.8624 11.7574C46.3052 12.3146 45.8632 12.976 45.5617 13.7039C45.2602 14.4319 45.105 15.2121 45.105 16C45.105 16.788 45.2602 17.5682 45.5617 18.2961C45.8632 19.0241 46.3052 19.6855 46.8624 20.2427C47.4195 20.7998 48.0809 21.2418 48.8089 21.5433C48.8139 21.5454 48.8183 21.5471 48.8222 21.5485C48.8297 21.5433 48.8394 21.536 48.851 21.5257C48.9605 21.429 49.105 21.1882 49.105 20.8585V11.1416C49.105 10.8119 48.9605 10.5711 48.851 10.4744C48.8394 10.4641 48.8297 10.4567 48.8222 10.4516C48.8183 10.453 48.8139 10.4547 48.8089 10.4568ZM48.0435 8.60901C49.6465 7.94504 51.105 9.40658 51.105 11.1416V20.8585C51.105 22.5935 49.6465 24.0551 48.0435 23.3911C47.0729 22.989 46.191 22.3998 45.4481 21.6569C44.7053 20.914 44.116 20.0321 43.714 19.0615C43.3119 18.0909 43.105 17.0506 43.105 16C43.105 14.9495 43.3119 13.9092 43.714 12.9386C44.116 11.968 44.7053 11.0861 45.4481 10.3432C46.191 9.60032 47.0729 9.01105 48.0435 8.60901Z" fill="#35291B"/>
<path fill-rule="evenodd" clip-rule="evenodd" d="M37.7831 37.841C37.8921 36.4923 37.7129 35.0844 37.2387 33.6974C36.7643 32.3097 36.0048 30.974 34.9932 29.7733C33.9815 28.5726 32.7431 27.5375 31.3481 26.7321C29.9531 25.9267 28.4374 25.3718 26.8917 25.096C25.3461 24.8202 23.8096 24.8303 22.3706 25.1133C20.9323 25.3961 19.6235 25.9449 18.5099 26.7137C18.1362 26.9717 18.0246 27.2873 18.1091 27.7258C18.2091 28.2443 18.6106 28.874 19.301 29.2726L35.1714 38.4354C35.8618 38.834 36.6079 38.8668 37.107 38.6942C37.529 38.5482 37.7465 38.2937 37.7831 37.841ZM39.7766 38.0021C39.5614 40.665 36.485 41.5032 34.1714 40.1674L18.301 31.0047C15.9874 29.6689 15.1752 26.5856 17.3737 25.0678C18.7245 24.1352 20.2913 23.4839 21.9847 23.1509C23.6781 22.8179 25.4649 22.8098 27.243 23.1271C29.0212 23.4444 30.7559 24.0808 32.3481 25C33.9403 25.9193 35.3588 27.1034 36.5226 28.4846C37.6865 29.8659 38.5728 31.4174 39.1312 33.0504C39.6895 34.6834 39.9088 36.366 39.7766 38.0021Z" fill="#35291B"/>
<path fill-rule="evenodd" clip-rule="evenodd" d="M33.3633 22.7682C30.9718 21.3875 27.9139 22.2068 26.5332 24.5983L24.8011 23.5983C26.7341 20.2503 31.0152 19.1031 34.3633 21.0361L36.0953 22.0361C39.4434 23.9691 40.5905 28.2503 38.6575 31.5983L36.9255 30.5983C38.3062 28.2068 37.4868 25.1489 35.0953 23.7682L33.3633 22.7682Z" fill="#35291B"/>
<path fill-rule="evenodd" clip-rule="evenodd" d="M15.6972 32.8423C16.6168 32.4495 17.656 33.0495 17.7756 34.0423L18.0411 36.2455C18.2471 37.9554 16.9744 39.4873 15.2557 39.5981L15.098 39.6083C13.8894 39.6863 12.7525 39.0299 12.2157 37.9442L12.1457 37.8026C11.3823 36.2587 12.0726 34.3906 13.6564 33.714L15.6972 32.8423ZM15.8697 34.9434L14.4421 35.5533C13.9141 35.7788 13.684 36.4015 13.9385 36.9161L14.0085 37.0578C14.1874 37.4196 14.5664 37.6384 14.9693 37.6125L15.127 37.6023C15.6999 37.5653 16.1241 37.0547 16.0554 36.4847L15.8697 34.9434Z" fill="#35291B"/>
<path fill-rule="evenodd" clip-rule="evenodd" d="M16.0273 42.2705C16.9469 41.8777 17.9862 42.4777 18.1058 43.4705L18.3712 45.6737C18.5772 47.3836 17.3045 48.9155 15.5858 49.0264L15.4281 49.0365C14.2195 49.1145 13.0826 48.4581 12.5458 47.3724L12.4758 47.2308C11.7124 45.6869 12.4027 43.8188 13.9866 43.1423L16.0273 42.2705ZM16.1999 44.3716L14.7722 44.9815C14.2443 45.207 14.0142 45.8297 14.2686 46.3443L14.3387 46.486C14.5176 46.8479 14.8966 47.0667 15.2994 47.0407L15.4571 47.0305C16.03 46.9936 16.4542 46.4829 16.3856 45.913L16.1999 44.3716Z" fill="#35291B"/>
<path fill-rule="evenodd" clip-rule="evenodd" d="M23.8216 46.7705C24.7412 46.3777 25.7804 46.9777 25.9 47.9705L26.1655 50.1737C26.3715 51.8836 25.0988 53.4155 23.3801 53.5264L23.2224 53.5365C22.0138 53.6145 20.8769 52.9581 20.3401 51.8724L20.27 51.7308C19.5067 50.1869 20.197 48.3188 21.7808 47.6423L23.8216 46.7705ZM23.9941 48.8716L22.5665 49.4815C22.0385 49.707 21.8084 50.3297 22.0629 50.8443L22.1329 50.986C22.3118 51.3479 22.6908 51.5667 23.0937 51.5407L23.2514 51.5305C23.8243 51.4936 24.2485 50.9829 24.1798 50.413L23.9941 48.8716Z" fill="#35291B"/>
<path fill-rule="evenodd" clip-rule="evenodd" d="M23.4914 37.3423C24.411 36.9495 25.4503 37.5495 25.5699 38.5423L25.8353 40.7455C26.0413 42.4554 24.7686 43.9873 23.0499 44.0981L22.8922 44.1083C21.6837 44.1863 20.5467 43.5299 20.0099 42.4442L19.9399 42.3026C19.1766 40.7587 19.8669 38.8906 21.4507 38.214L23.4914 37.3423ZM23.664 39.4434L22.2363 40.0533C21.7084 40.2788 21.4783 40.9015 21.7327 41.4161L21.8028 41.5578C21.9817 41.9196 22.3607 42.1384 22.7635 42.1125L22.9212 42.1023C23.4941 42.0653 23.9184 41.5547 23.8497 40.9847L23.664 39.4434Z" fill="#35291B"/>
<path fill-rule="evenodd" clip-rule="evenodd" d="M31.2857 41.8423C32.2053 41.4495 33.2445 42.0495 33.3641 43.0423L33.6296 45.2455C33.8356 46.9554 32.5629 48.4873 30.8442 48.5981L30.6865 48.6083C29.4779 48.6863 28.341 48.0299 27.8042 46.9442L27.7342 46.8026C26.9708 45.2587 27.6611 43.3906 29.2449 42.714L31.2857 41.8423ZM31.4582 43.9434L30.0306 44.5533C29.5026 44.7788 29.2725 45.4015 29.527 45.9161L29.597 46.0578C29.7759 46.4196 30.1549 46.6384 30.5578 46.6125L30.7155 46.6023C31.2884 46.5653 31.7126 46.0547 31.6439 45.4847L31.4582 43.9434Z" fill="#35291B"/>
<path fill-rule="evenodd" clip-rule="evenodd" d="M39.205 15.175C37.8567 16.1863 36.4526 18.0339 33.9187 21.5813C33.5977 22.0307 32.9732 22.1348 32.5238 21.8138C32.0743 21.4928 31.9703 20.8682 32.2913 20.4188C34.7574 16.9662 36.3533 14.8138 38.005 13.575C39.7684 12.2525 41.5385 12 44.105 12C44.6573 12 45.105 12.4478 45.105 13C45.105 13.5523 44.6573 14 44.105 14C41.6715 14 40.4415 14.2476 39.205 15.175Z" fill="#35291B"/>
<path fill-rule="evenodd" clip-rule="evenodd" d="M40.1158 23.656C39.7582 24.255 39.3696 24.906 38.937 25.5547C38.6307 26.0143 38.0098 26.1385 37.5503 25.8321C37.0908 25.5257 36.9666 24.9049 37.2729 24.4453C37.6753 23.8418 38.0345 23.2404 38.3919 22.6419C38.4635 22.5219 38.5351 22.4021 38.6069 22.2824C39.0283 21.5801 39.462 20.8765 39.9406 20.2611C40.9204 19.0014 42.1807 18 44.105 18C44.6573 18 45.105 18.4478 45.105 19C45.105 19.5523 44.6573 20 44.105 20C43.0293 20 42.2896 20.4987 41.5193 21.489C41.123 21.9986 40.7442 22.6075 40.3219 23.3114C40.2543 23.424 40.1856 23.539 40.1158 23.656Z" fill="#35291B"/>
</svg>
