<svg width="64" height="64" viewBox="0 0 64 64" fill="none" xmlns="http://www.w3.org/2000/svg">
<path fill-rule="evenodd" clip-rule="evenodd" d="M32 54C44.1503 54 54 44.1503 54 32C54 19.8497 44.1503 10 32 10C19.8497 10 10 19.8497 10 32C10 44.1503 19.8497 54 32 54ZM32 56C45.2548 56 56 45.2548 56 32C56 18.7452 45.2548 8 32 8C18.7452 8 8 18.7452 8 32C8 45.2548 18.7452 56 32 56Z" fill="#35291B"/>
<path fill-rule="evenodd" clip-rule="evenodd" d="M50 31C49.4477 31 49 31.4477 49 32C49 32.5523 49.4477 33 50 33C50.5523 33 51 32.5523 51 32C51 31.4477 50.5523 31 50 31ZM47 32C47 30.3431 48.3431 29 50 29C51.6569 29 53 30.3431 53 32C53 33.6569 51.6569 35 50 35C48.3431 35 47 33.6569 47 32Z" fill="#35291B"/>
<path d="M34 14C34 15.1046 33.1046 16 32 16C30.8954 16 30 15.1046 30 14C30 12.8954 30.8954 12 32 12C33.1046 12 34 12.8954 34 14Z" fill="#35291B"/>
<path fill-rule="evenodd" clip-rule="evenodd" d="M14 31C13.4477 31 13 31.4477 13 32C13 32.5523 13.4477 33 14 33C14.5523 33 15 32.5523 15 32C15 31.4477 14.5523 31 14 31ZM11 32C11 30.3431 12.3431 29 14 29C15.6569 29 17 30.3431 17 32C17 33.6569 15.6569 35 14 35C12.3431 35 11 33.6569 11 32Z" fill="#35291B"/>
<path fill-rule="evenodd" clip-rule="evenodd" d="M36 32.0001C36 33.5785 35.0858 34.9434 33.7579 35.5941C33.3302 35.8037 33 36.2071 33 36.6834C33 37.329 33.5861 37.8244 34.1872 37.589C36.4193 36.7148 38 34.542 38 32.0001C38 31.6946 37.9772 31.3945 37.9331 31.1012C37.8371 30.4622 37.1147 30.2019 36.5551 30.5249C36.1429 30.7629 35.9584 31.2498 35.9907 31.7247C35.9969 31.8157 36 31.9075 36 32.0001ZM32 26.0001C33.4182 26.0001 34.7214 26.4921 35.7484 27.3148C36.2522 27.7184 36.1165 28.4734 35.5575 28.7962C35.1452 29.0342 34.6313 28.9501 34.2368 28.6835C33.5983 28.2521 32.8286 28.0001 32 28.0001C31.1726 28.0001 30.4039 28.2513 29.766 28.6816C29.3716 28.9477 28.858 29.0315 28.446 28.7936C27.8866 28.4706 27.7511 27.715 28.2556 27.3116C29.2819 26.4909 30.5837 26.0001 32 26.0001ZM27.4444 30.5292C26.8845 30.2059 26.1616 30.4668 26.0661 31.1062C26.0226 31.3979 26 31.6964 26 32.0001C26 34.542 27.5807 36.7148 29.8128 37.589C30.4139 37.8244 31 37.329 31 36.6834C31 36.2071 30.6698 35.8037 30.2421 35.5941C28.9142 34.9434 28 33.5785 28 32.0001C28 31.9087 28.0031 31.818 28.0091 31.7281C28.041 31.2535 27.8563 30.767 27.4444 30.5292Z" fill="#35291B"/>
<path fill-rule="evenodd" clip-rule="evenodd" d="M44 32C44 37.9739 39.6348 42.9282 33.92 43.8472C33.4032 43.9303 33 44.3618 33 44.8853C33 45.4688 33.4964 45.9332 34.0736 45.8475C40.8223 44.8455 46 39.0274 46 32C46 30.1894 45.6563 28.4591 45.0306 26.8708C44.8166 26.3277 44.1663 26.1304 43.6608 26.4223C43.2074 26.6841 43.035 27.2483 43.221 27.7376C43.7244 29.0621 44 30.4989 44 32ZM32 18C36.4354 18 40.389 20.0626 42.9541 23.2809C43.318 23.7374 43.1642 24.3996 42.6587 24.6915C42.2063 24.9527 41.6327 24.8206 41.3024 24.416C39.1017 21.7204 35.7512 20 32 20C28.2491 20 24.9001 21.7209 22.6996 24.4163C22.369 24.8213 21.7891 24.9501 21.3363 24.6887C20.8303 24.3965 20.6823 23.7371 21.0465 23.2802C23.6115 20.0623 27.5649 18 32 18ZM20.3315 26.4423C19.8254 26.1501 19.1743 26.3481 18.961 26.8922C18.3406 28.4747 18 30.1976 18 32C18 39.0274 23.1777 44.8455 29.9264 45.8475C30.5035 45.9332 31 45.4688 31 44.8853C31 44.3618 30.5968 43.9303 30.0799 43.8472C24.3652 42.9282 20 37.9739 20 32C20 30.5058 20.2731 29.0754 20.7721 27.756C20.957 27.267 20.7843 26.7037 20.3315 26.4423Z" fill="#35291B"/>
<path fill-rule="evenodd" clip-rule="evenodd" d="M40 32.0001C40 35.771 37.391 38.9325 33.8797 39.7781C33.383 39.8976 33 40.3217 33 40.8325C33 41.4314 33.5192 41.9037 34.1047 41.7782C38.6169 40.8116 42 36.801 42 32.0001C42 30.9305 41.8321 29.9001 41.5211 28.9338C41.3375 28.3634 40.6687 28.15 40.1497 28.4496C39.7075 28.7049 39.5315 29.248 39.6757 29.7379C39.8867 30.4553 40 31.2145 40 32.0001ZM32 22.0001C34.9451 22.0001 37.5928 23.2733 39.4229 25.2992C39.8244 25.7437 39.675 26.4294 39.1562 26.7289C38.714 26.9842 38.1557 26.865 37.8042 26.4946C36.3465 24.9582 34.2851 24.0001 32 24.0001C29.7191 24.0001 27.6612 24.9547 26.2039 26.486C25.8522 26.8555 25.2945 26.9741 24.8528 26.7191C24.3335 26.4193 24.1844 25.7327 24.587 25.2883C26.4167 23.2687 29.0602 22.0001 32 22.0001ZM23.8464 28.4623C23.3268 28.1624 22.6573 28.3765 22.4744 28.9478C22.1663 29.91 22 30.9357 22 32.0001C22 36.801 25.3831 40.8116 29.8953 41.7782C30.4808 41.9037 31 41.4314 31 40.8325C31 40.3217 30.617 39.8976 30.1203 39.7781C26.609 38.9325 24 35.771 24 32.0001C24 31.2186 24.1121 30.4632 24.321 29.7492C24.4643 29.2596 24.2881 28.7174 23.8464 28.4623Z" fill="#35291B"/>
</svg>
