<svg width="64" height="64" viewBox="0 0 64 64" fill="none" xmlns="http://www.w3.org/2000/svg">
<path fill-rule="evenodd" clip-rule="evenodd" d="M28 34V20C28 16.6863 25.3137 14 22 14C18.6863 14 16 16.6863 16 20V28C16 31.3137 18.6863 34 22 34H28ZM22 12C17.5817 12 14 15.5817 14 20V28C14 32.4183 17.5817 36 22 36H30V20C30 15.5817 26.4183 12 22 12Z" fill="#35291B"/>
<path fill-rule="evenodd" clip-rule="evenodd" d="M47 32H34C32.5194 32 31.2267 32.8044 30.5351 34H47C47.5523 34 48 33.5523 48 33C48 32.4477 47.5523 32 47 32ZM47 36C48.6569 36 50 34.6569 50 33C50 31.3431 48.6569 30 47 30H34C31.3876 30 29.1651 31.6696 28.3414 34C28.1203 34.6256 28 35.2987 28 36H47Z" fill="#35291B"/>
<path fill-rule="evenodd" clip-rule="evenodd" d="M22 34C22.5523 34 23 34.4477 23 35V40C23 40.5523 23.4477 41 24 41C25.6569 41 27 42.3431 27 44V46C27 47.6569 28.3431 49 30 49H35.5279C36.6365 49 37.4174 48.0136 37.278 47H36C35.4477 47 35 46.5523 35 46C35 45.4477 35.4477 45 36 45H38C41.866 45 45 41.866 45 38V35C45 34.4477 45.4477 34 46 34C46.5523 34 47 34.4477 47 35V38C47 42.5352 43.6455 46.287 39.2823 46.9093C39.4683 49.0087 37.8289 51 35.5279 51H30C27.2386 51 25 48.7614 25 46V44C25 43.4477 24.5523 43 24 43C22.3431 43 21 41.6569 21 40V35C21 34.4477 21.4477 34 22 34Z" fill="#35291B"/>
<path fill-rule="evenodd" clip-rule="evenodd" d="M20 21C20 20.4477 20.4477 20 21 20H23C23.5523 20 24 20.4477 24 21C24 21.5523 23.5523 22 23 22H21C20.4477 22 20 21.5523 20 21Z" fill="#35291B"/>
</svg>
