<svg width="64" height="64" viewBox="0 0 64 64" fill="none" xmlns="http://www.w3.org/2000/svg">
<path fill-rule="evenodd" clip-rule="evenodd" d="M32.5884 33.3043L31.6065 33.1149L31.4877 32.1219L32.8478 31.9592L32.5884 33.3043ZM30.307 34.3121C29.7353 34.4028 29.0203 34.5252 28.2158 34.682C26.1534 35.0839 23.5397 35.7051 21.2516 36.586C20.1078 37.0264 19.0727 37.5214 18.2376 38.0694C17.3945 38.6226 16.8164 39.19 16.5054 39.7506C16.2144 40.275 16.1354 40.8263 16.3468 41.4772C16.5717 42.1694 17.1492 43.0406 18.3248 44.084C20.6423 46.1408 22.3756 46.3094 23.6897 45.8035C25.127 45.2502 26.4121 43.7708 27.5007 41.8088C28.5698 39.8818 29.3531 37.6653 29.8713 35.908C30.0485 35.3072 30.1933 34.7648 30.307 34.3121ZM31.6065 33.1149C31.4877 32.1219 31.4877 32.1219 31.4877 32.1219L31.4817 32.1227L31.4671 32.1244L31.4127 32.1312C31.3654 32.1372 31.2965 32.1461 31.2076 32.158C31.0299 32.1818 30.7723 32.2176 30.4491 32.2663C29.8031 32.3636 28.8932 32.5123 27.8332 32.7189C25.7219 33.1304 22.9785 33.7781 20.5331 34.7196C19.3101 35.1904 18.1344 35.745 17.1404 36.3972C16.1544 37.0441 15.2852 37.8274 14.7565 38.7803C14.2077 39.7695 14.0547 40.8946 14.4446 42.0951C14.8212 43.2542 15.6786 44.4095 16.9972 45.5798C19.6682 47.9503 22.1724 48.5308 24.4083 47.6699C26.5212 46.8565 28.0989 44.8531 29.2495 42.7791C30.4197 40.67 31.252 38.2969 31.7897 36.4737C32.0599 35.5575 32.2585 34.77 32.39 34.2101C32.4558 33.9299 32.5048 33.7062 32.5377 33.5512C32.5541 33.4737 32.5665 33.4134 32.575 33.3717L32.5846 33.3234L32.5872 33.3101L32.588 33.3063C32.588 33.3063 32.5884 33.3043 31.6065 33.1149Z" fill="#35291B"/>
<path fill-rule="evenodd" clip-rule="evenodd" d="M30.8803 33.9267L31.5353 33.171L32.4546 33.5646L31.9155 34.8239L30.8803 33.9267ZM31.1482 31.4471C31.3555 30.9066 31.607 30.2262 31.8735 29.451C32.5566 27.464 33.3255 24.8899 33.7066 22.4679C33.8971 21.2572 33.986 20.1132 33.929 19.116C33.8715 18.1092 33.6692 17.3249 33.3392 16.7752C33.0305 16.2611 32.5926 15.917 31.9232 15.7746C31.2112 15.6232 30.1681 15.6878 28.6767 16.1842C25.7366 17.1628 24.7239 18.5796 24.505 19.9706C24.2656 21.492 24.9042 23.3446 26.0591 25.2684C27.1934 27.1577 28.7212 28.9443 29.984 30.2718C30.4157 30.7256 30.813 31.1223 31.1482 31.4471ZM31.5353 33.171C32.4546 33.5646 32.4546 33.5646 32.4546 33.5646L32.457 33.5591L32.4627 33.5455L32.4841 33.495C32.5025 33.4511 32.5293 33.3869 32.5634 33.304C32.6317 33.1382 32.7294 32.8973 32.8489 32.5931C33.0876 31.9849 33.4138 31.1226 33.7649 30.1013C34.4642 28.0671 35.2749 25.3674 35.6823 22.7788C35.886 21.4843 35.9936 20.1888 35.9258 19.0019C35.8585 17.8246 35.6148 16.6801 35.0539 15.7458C34.4717 14.776 33.5738 14.0809 32.3392 13.8184C31.1471 13.5649 29.7179 13.7298 28.045 14.2866C24.6566 15.4144 22.9018 17.2929 22.5293 19.6597C22.1774 21.8963 23.1235 24.2642 24.3443 26.2978C25.5858 28.3657 27.2248 30.2731 28.5349 31.6503C29.1932 32.3424 29.7759 32.9081 30.1951 33.302C30.4048 33.499 30.574 33.6534 30.6918 33.7593C30.7507 33.8123 30.7968 33.8532 30.8286 33.8813L30.8656 33.9139L30.8758 33.9228L30.8788 33.9253C30.8788 33.9253 30.8803 33.9267 31.5353 33.171Z" fill="#35291B"/>
<path fill-rule="evenodd" clip-rule="evenodd" d="M31.3526 32.2429L31.6795 33.188L30.879 33.7873L30.058 32.6907L31.3526 32.2429ZM33.366 33.7147C33.7305 34.1644 34.194 34.7225 34.732 35.3409C36.1113 36.926 37.9561 38.8789 39.8631 40.4199C40.8163 41.1903 41.7626 41.8393 42.6547 42.2885C43.5553 42.7421 44.3358 42.959 44.9768 42.948C45.5764 42.9378 46.0933 42.7306 46.5513 42.2221C47.0384 41.6812 47.5041 40.7455 47.8199 39.2057C48.4424 36.1702 47.7218 34.5849 46.6265 33.6998C45.4287 32.7317 43.505 32.3584 41.2616 32.3967C39.0582 32.4344 36.747 32.8642 34.966 33.2941C34.3571 33.441 33.8149 33.5868 33.366 33.7147ZM31.6795 33.188C30.879 33.7873 30.879 33.7873 30.879 33.7873L30.8826 33.7921L30.8915 33.8039L30.9246 33.8476C30.9534 33.8855 30.9956 33.9408 31.0503 34.0118C31.1598 34.1539 31.3196 34.359 31.5233 34.6145C31.9305 35.1254 32.5143 35.839 33.2232 36.6537C34.6352 38.2764 36.5679 40.3284 38.606 41.9755C39.6252 42.7992 40.6933 43.5401 41.7551 44.0748C42.8083 44.6052 43.9214 44.9664 45.0109 44.9478C46.1419 44.9284 47.1928 44.4984 48.0375 43.5605C48.8531 42.6548 49.4249 41.3346 49.7791 39.6075C50.4966 36.1091 49.7471 33.6502 47.8836 32.1442C46.1227 30.7211 43.5989 30.3565 41.2274 30.397C38.8158 30.4382 36.3445 30.9039 34.4968 31.3499C33.5682 31.574 32.7869 31.7957 32.2362 31.9618C31.9607 32.0449 31.7424 32.1143 31.5918 32.1633C31.5165 32.1878 31.458 32.2073 31.4177 32.2208L31.3711 32.2366L31.3582 32.241L31.3545 32.2423C31.3545 32.2423 31.3526 32.2429 31.6795 33.188Z" fill="#35291B"/>
<path d="M37.4596 34.6831C36.6019 37.8839 33.3119 39.7834 30.1111 38.9258C26.9103 38.0681 25.0108 34.7781 25.8685 31.5773C26.7261 28.3765 30.0162 26.477 33.2169 27.3347C36.4177 28.1923 38.3172 31.4823 37.4596 34.6831Z" fill="#35291B"/>
<path fill-rule="evenodd" clip-rule="evenodd" d="M55 33C55.5523 33 56 33.4477 56 34C56 40.3512 52.823 45.8616 48.2758 49.7593C44.3357 53.1365 39.3144 55.3516 34.2928 55.8786L39.0711 60.6569C39.4616 61.0474 39.4616 61.6805 39.0711 62.0711C38.6805 62.4616 38.0474 62.4616 37.6569 62.0711L31.2929 55.7071C30.9024 55.3166 30.9024 54.6834 31.2929 54.2929L37.6569 47.9289C38.0474 47.5384 38.6805 47.5384 39.0711 47.9289C39.4616 48.3195 39.4616 48.9526 39.0711 49.3431L34.5833 53.8309C39.0104 53.2586 43.4523 51.2595 46.9742 48.2407C51.177 44.6384 54 39.6487 54 34C54 33.4477 54.4477 33 55 33Z" fill="#35291B"/>
<path fill-rule="evenodd" clip-rule="evenodd" d="M10.721 22.0397C11.2514 21.8856 11.8062 22.1907 11.9603 22.721L14.4709 31.3638C14.625 31.8941 14.3199 32.449 13.7896 32.603C13.2592 32.7571 12.7044 32.452 12.5503 31.9217L10.7796 25.826C8.94631 30.4749 8.50967 36.2598 10.1986 41.2962C12.157 47.1361 16.9931 52.0464 26.1047 53.0055C26.6539 53.0633 27.0523 53.5554 26.9945 54.1047C26.9367 54.6539 26.4445 55.0523 25.8953 54.9945C16.0069 53.9536 10.5103 48.516 8.30239 41.9321C6.39 36.2294 6.96039 29.7258 9.12574 24.5858L2.63621 26.4709C2.10585 26.625 1.55101 26.3199 1.39695 25.7896C1.24289 25.2592 1.54794 24.7044 2.0783 24.5503L10.721 22.0397Z" fill="#35291B"/>
<path fill-rule="evenodd" clip-rule="evenodd" d="M37.1362 10.596C29.8787 8.8114 21.4806 10.9336 14.7071 17.7071C14.3166 18.0976 13.6834 18.0976 13.2929 17.7071C12.9024 17.3166 12.9024 16.6834 13.2929 16.2929C20.5194 9.06631 29.6213 6.68853 37.6138 8.6539C44.9931 10.4685 51.3209 15.9606 54.2898 24.5185L57.6711 18.7221C57.9493 18.245 58.5617 18.0839 59.0387 18.3622C59.5158 18.6405 59.6769 19.2528 59.3986 19.7298L54.8638 27.5038C54.5855 27.9809 53.9732 28.142 53.4961 27.8638L45.7221 23.3289C45.2451 23.0506 45.0839 22.4383 45.3622 21.9613C45.6405 21.4842 46.2528 21.3231 46.7299 21.6014L52.2822 24.8402C49.4785 17.0824 43.7263 12.2166 37.1362 10.596Z" fill="#35291B"/>
</svg>
