<svg width="64" height="64" viewBox="0 0 64 64" fill="none" xmlns="http://www.w3.org/2000/svg">
<path fill-rule="evenodd" clip-rule="evenodd" d="M44 6H22C18.6863 6 16 8.68629 16 12V40C16 43.3137 18.6863 46 22 46H44C47.3137 46 50 43.3137 50 40V12C50 8.68629 47.3137 6 44 6ZM22 4C17.5817 4 14 7.58172 14 12V40C14 44.4183 17.5817 48 22 48H44C48.4183 48 52 44.4183 52 40V12C52 7.58172 48.4183 4 44 4H22Z" fill="#35291B"/>
<path fill-rule="evenodd" clip-rule="evenodd" d="M30 52H28V54H30V52ZM28 50C26.8954 50 26 50.8954 26 52V54C26 55.1046 26.8954 56 28 56H30C31.1046 56 32 55.1046 32 54V52C32 50.8954 31.1046 50 30 50H28Z" fill="#35291B"/>
<path fill-rule="evenodd" clip-rule="evenodd" d="M38 52H36V54H38V52ZM36 50C34.8954 50 34 50.8954 34 52V54C34 55.1046 34.8954 56 36 56H38C39.1046 56 40 55.1046 40 54V52C40 50.8954 39.1046 50 38 50H36Z" fill="#35291B"/>
<path fill-rule="evenodd" clip-rule="evenodd" d="M36 46V37C36 35.3431 34.6569 34 33 34C31.3431 34 30 35.3431 30 37V46H36ZM38 37C38 34.2386 35.7614 32 33 32C30.2386 32 28 34.2386 28 37L28 48H38V37Z" fill="#35291B"/>
<path fill-rule="evenodd" clip-rule="evenodd" d="M39 48H27C26.4477 48 26 48.4477 26 49C26 49.5523 26.4477 50 27 50H39C39.5523 50 40 49.5523 40 49C40 48.4477 39.5523 48 39 48ZM27 46C25.3431 46 24 47.3431 24 49C24 50.6569 25.3431 52 27 52H39C40.6569 52 42 50.6569 42 49C42 47.3431 40.6569 46 39 46H27Z" fill="#35291B"/>
<path fill-rule="evenodd" clip-rule="evenodd" d="M33 22C35.7614 22 38 19.7614 38 17C38 14.2386 35.7614 12 33 12C30.2386 12 28 14.2386 28 17C28 19.7614 30.2386 22 33 22ZM33 24C36.866 24 40 20.866 40 17C40 13.134 36.866 10 33 10C29.134 10 26 13.134 26 17C26 20.866 29.134 24 33 24Z" fill="#35291B"/>
<path fill-rule="evenodd" clip-rule="evenodd" d="M33 18C32.4477 18 32 17.5523 32 17V15C32 14.4477 32.4477 14 33 14C33.5523 14 34 14.4477 34 15V17C34 17.5523 33.5523 18 33 18Z" fill="#35291B"/>
<path d="M33 40C33.5523 40 34 40.4477 34 41C34 41.5523 33.5523 42 33 42C32.4477 42 32 41.5523 32 41C32 40.4477 32.4477 40 33 40Z" fill="#35291B"/>
<path d="M33 36C33.5523 36 34 36.4477 34 37C34 37.5523 33.5523 38 33 38C32.4477 38 32 37.5523 32 37C32 36.4477 32.4477 36 33 36Z" fill="#35291B"/>
</svg>
