<svg width="64" height="64" viewBox="0 0 64 64" fill="none" xmlns="http://www.w3.org/2000/svg">
<path fill-rule="evenodd" clip-rule="evenodd" d="M48 10H16C12.6863 10 10 12.6863 10 16V48C10 51.3137 12.6863 54 16 54H48C51.3137 54 54 51.3137 54 48V16C54 12.6863 51.3137 10 48 10ZM16 8C11.5817 8 8 11.5817 8 16V48C8 52.4183 11.5817 56 16 56H48C52.4183 56 56 52.4183 56 48V16C56 11.5817 52.4183 8 48 8H16Z" fill="#35291B"/>
<path fill-rule="evenodd" clip-rule="evenodd" d="M56 22H8V20H56V22Z" fill="#35291B"/>
<path d="M44 15C44 16.6569 42.6569 18 41 18C39.3431 18 38 16.6569 38 15C38 13.3431 39.3431 12 41 12C42.6569 12 44 13.3431 44 15Z" fill="#35291B"/>
<path d="M46 13C46 12.4477 46.4477 12 47 12H49C49.5523 12 50 12.4477 50 13C50 13.5523 49.5523 14 49 14H47C46.4477 14 46 13.5523 46 13Z" fill="#35291B"/>
<path d="M32 13C32 12.4477 32.4477 12 33 12H35C35.5523 12 36 12.4477 36 13C36 13.5523 35.5523 14 35 14H33C32.4477 14 32 13.5523 32 13Z" fill="#35291B"/>
<path d="M46 17C46 16.4477 46.4477 16 47 16H49C49.5523 16 50 16.4477 50 17C50 17.5523 49.5523 18 49 18H47C46.4477 18 46 17.5523 46 17Z" fill="#35291B"/>
<path d="M32 17C32 16.4477 32.4477 16 33 16H35C35.5523 16 36 16.4477 36 17C36 17.5523 35.5523 18 35 18H33C32.4477 18 32 17.5523 32 17Z" fill="#35291B"/>
<path fill-rule="evenodd" clip-rule="evenodd" d="M32 25C24.8203 25 19 30.8203 19 38C19 45.1797 24.8203 51 32 51C39.1797 51 45 45.1797 45 38C45 30.8203 39.1797 25 32 25ZM17 38C17 29.7157 23.7157 23 32 23C40.2843 23 47 29.7157 47 38C47 46.2843 40.2843 53 32 53C23.7157 53 17 46.2843 17 38Z" fill="#35291B"/>
<path fill-rule="evenodd" clip-rule="evenodd" d="M32 48C37.5228 48 42 43.5229 42 38C42 32.4772 37.5228 28 32 28C26.4772 28 22 32.4772 22 38C22 43.5229 26.4772 48 32 48ZM32 50C38.6274 50 44 44.6274 44 38C44 31.3726 38.6274 26 32 26C25.3726 26 20 31.3726 20 38C20 44.6274 25.3726 50 32 50Z" fill="#35291B"/>
<path fill-rule="evenodd" clip-rule="evenodd" d="M26.3009 41.715C25.6688 41.0969 25.4415 40.9526 25.124 40.9923C24.7334 41.0411 24.1757 41.3688 23.6152 41.8346C23.3586 42.0478 23.1388 42.2581 22.983 42.4156C22.9055 42.4938 22.8451 42.5577 22.8052 42.6008L22.7614 42.6487L22.752 42.6592C22.7521 42.6591 22.7514 42.6598 22 42C21.2486 41.3402 21.2487 41.34 21.2488 41.3399L21.2518 41.3366L21.2573 41.3303L21.2753 41.3102C21.2904 41.2935 21.3114 41.2703 21.338 41.2416C21.3912 41.1842 21.4669 41.1042 21.5616 41.0086C21.7499 40.8183 22.0181 40.5613 22.3369 40.2964C22.9271 39.8059 23.8694 39.1335 24.876 39.0077C26.2295 38.8385 27.1174 39.7125 27.6309 40.218C27.6544 40.2411 27.6772 40.2635 27.6991 40.285C28.3312 40.9031 28.5585 41.0474 28.876 41.0077C29.1488 40.9736 29.319 40.8293 29.7486 40.3402C29.7631 40.3237 29.7779 40.3067 29.7932 40.2892C30.1704 39.8577 30.7954 39.1428 31.876 39.0077C33.2295 38.8385 34.1174 39.7125 34.6309 40.218C34.6544 40.2411 34.6772 40.2635 34.6991 40.285C35.3312 40.9031 35.5585 41.0474 35.876 41.0077C36.1189 40.9773 36.2744 40.837 36.7284 40.2935C36.7377 40.2823 36.7472 40.2709 36.757 40.2592C37.1334 39.8075 37.8063 39 39 39C39.5799 39 40.1113 39.2022 40.5379 39.4326C40.972 39.6669 41.3645 39.9669 41.6849 40.246C42.0082 40.5276 42.2786 40.8062 42.4676 41.0131C42.5628 41.1173 42.6388 41.205 42.6922 41.2681C42.7189 41.2997 42.7401 41.3252 42.7553 41.3437L42.7735 41.3661L42.7791 41.3731L42.7811 41.3755C42.7812 41.3757 42.7824 41.3772 42 42C41.2176 42.6228 41.2177 42.6229 41.2178 42.6231L41.2083 42.6114C41.1995 42.6006 41.185 42.5831 41.1655 42.56C41.1263 42.5138 41.067 42.4452 40.9909 42.3619C40.8374 42.1938 40.6219 41.9724 40.3712 41.754C40.1175 41.5331 39.8481 41.333 39.5877 41.1924C39.3198 41.0478 39.1241 41 39 41C38.8164 41 38.6915 41.063 38.2635 41.5755C38.2422 41.601 38.2197 41.6282 38.1961 41.6568C37.8376 42.0918 37.2069 42.8569 36.124 42.9923C34.7705 43.1615 33.8826 42.2875 33.3691 41.782C33.3456 41.7589 33.3228 41.7365 33.3009 41.715C32.6688 41.0969 32.4415 40.9526 32.124 40.9923C31.8512 41.0264 31.681 41.1707 31.2514 41.6598C31.2369 41.6763 31.2221 41.6933 31.2068 41.7108C30.8296 42.1422 30.2046 42.8572 29.124 42.9923C27.7705 43.1615 26.8826 42.2875 26.3691 41.782C26.3456 41.7589 26.3228 41.7365 26.3009 41.715Z" fill="#35291B"/>
<path fill-rule="evenodd" clip-rule="evenodd" d="M28 35C27.4477 35 27 35.4477 27 36C27 36.5523 27.4477 37 28 37C28.5523 37 29 36.5523 29 36C29 35.4477 28.5523 35 28 35ZM25 36C25 34.3431 26.3431 33 28 33C29.6569 33 31 34.3431 31 36C31 37.6569 29.6569 39 28 39C26.3431 39 25 37.6569 25 36Z" fill="#35291B"/>
<path d="M34 33C34 33.5523 33.5523 34 33 34C32.4477 34 32 33.5523 32 33C32 32.4477 32.4477 32 33 32C33.5523 32 34 32.4477 34 33Z" fill="#35291B"/>
<path fill-rule="evenodd" clip-rule="evenodd" d="M23 14H17C16.4477 14 16 14.4477 16 15C16 15.5523 16.4477 16 17 16H23C23.5523 16 24 15.5523 24 15C24 14.4477 23.5523 14 23 14ZM17 12C15.3431 12 14 13.3431 14 15C14 16.6569 15.3431 18 17 18H23C24.6569 18 26 16.6569 26 15C26 13.3431 24.6569 12 23 12H17Z" fill="#35291B"/>
</svg>
