<svg width="64" height="64" viewBox="0 0 64 64" fill="none" xmlns="http://www.w3.org/2000/svg">
<path fill-rule="evenodd" clip-rule="evenodd" d="M23.04 34.6729C23.04 30.369 26.4785 26.88 30.72 26.88H51.2C55.4415 26.88 58.88 30.369 58.88 34.6729V48.5271C58.88 52.831 55.4415 56.32 51.2 56.32H30.72C26.4785 56.32 23.04 52.831 23.04 48.5271V34.6729ZM30.72 28.6118C27.421 28.6118 24.7467 31.3254 24.7467 34.6729V48.5271C24.7467 51.8746 27.421 54.5882 30.72 54.5882H51.2C54.499 54.5882 57.1733 51.8746 57.1733 48.5271V34.6729C57.1733 31.3254 54.499 28.6118 51.2 28.6118H30.72Z" fill="#35291B"/>
<path fill-rule="evenodd" clip-rule="evenodd" d="M53.76 36.4047C54.2313 36.4047 54.6133 36.7924 54.6133 37.2706V39.0024C54.6133 39.4806 54.2313 39.8682 53.76 39.8682C53.2887 39.8682 52.9067 39.4806 52.9067 39.0024V37.2706C52.9067 36.7924 53.2887 36.4047 53.76 36.4047Z" fill="#35291B"/>
<path fill-rule="evenodd" clip-rule="evenodd" d="M31.5733 36.4047C32.0446 36.4047 32.4267 36.7924 32.4267 37.2706V38.8932V39.0024C32.4267 39.4806 32.0446 39.8682 31.5733 39.8682C31.1021 39.8682 30.72 39.4806 30.72 39.0024V38.8932V37.2706C30.72 36.7924 31.1021 36.4047 31.5733 36.4047Z" fill="#35291B"/>
<path fill-rule="evenodd" clip-rule="evenodd" d="M32.4267 35.5388C32.4267 35.0606 32.8087 34.6729 33.28 34.6729H34.8791H34.9867C35.458 34.6729 35.84 35.0606 35.84 35.5388C35.84 36.017 35.458 36.4047 34.9867 36.4047H34.8791H33.28C32.8087 36.4047 32.4267 36.017 32.4267 35.5388Z" fill="#35291B"/>
<path fill-rule="evenodd" clip-rule="evenodd" d="M27.3067 35.5388C27.3067 35.0606 27.6887 34.6729 28.16 34.6729H28.2675H29.8667C30.338 34.6729 30.72 35.0606 30.72 35.5388C30.72 36.017 30.338 36.4047 29.8667 36.4047H28.2675H28.16C27.6887 36.4047 27.3067 36.017 27.3067 35.5388Z" fill="#35291B"/>
<path fill-rule="evenodd" clip-rule="evenodd" d="M43.52 48.5271C43.9913 48.5271 44.3733 48.9147 44.3733 49.3929V51.0156V51.1247C44.3733 51.6029 43.9913 51.9906 43.52 51.9906C43.0487 51.9906 42.6667 51.6029 42.6667 51.1247V51.0156V49.3929C42.6667 48.9147 43.0487 48.5271 43.52 48.5271Z" fill="#35291B"/>
<path fill-rule="evenodd" clip-rule="evenodd" d="M44.3733 47.6612C44.3733 47.183 44.7554 46.7953 45.2267 46.7953H46.8258H46.9333C47.4046 46.7953 47.7867 47.183 47.7867 47.6612C47.7867 48.1394 47.4046 48.5271 46.9333 48.5271H46.8258H45.2267C44.7554 48.5271 44.3733 48.1394 44.3733 47.6612Z" fill="#35291B"/>
<path fill-rule="evenodd" clip-rule="evenodd" d="M39.2533 47.6612C39.2533 47.183 39.6354 46.7953 40.1067 46.7953H40.2142H41.8133C42.2846 46.7953 42.6667 47.183 42.6667 47.6612C42.6667 48.1394 42.2846 48.5271 41.8133 48.5271H40.2142H40.1067C39.6354 48.5271 39.2533 48.1394 39.2533 47.6612Z" fill="#35291B"/>
<path fill-rule="evenodd" clip-rule="evenodd" d="M31.5733 48.5271C32.0446 48.5271 32.4267 48.9147 32.4267 49.3929V50.111V51.1247C32.4267 51.6029 32.0446 51.9906 31.5733 51.9906C31.1021 51.9906 30.72 51.6029 30.72 51.1247V50.111V49.3929C30.72 48.9147 31.1021 48.5271 31.5733 48.5271Z" fill="#35291B"/>
<path fill-rule="evenodd" clip-rule="evenodd" d="M31.5733 43.3318C32.0446 43.3318 32.4267 43.7194 32.4267 44.1976V45.2113V45.9294C32.4267 46.4076 32.0446 46.7953 31.5733 46.7953C31.1021 46.7953 30.72 46.4076 30.72 45.9294V45.2113V44.1976C30.72 43.7194 31.1021 43.3318 31.5733 43.3318Z" fill="#35291B"/>
<path fill-rule="evenodd" clip-rule="evenodd" d="M32.4267 47.6612C32.4267 47.183 32.8087 46.7953 33.28 46.7953H33.9877H34.9867C35.458 46.7953 35.84 47.183 35.84 47.6612C35.84 48.1394 35.458 48.5271 34.9867 48.5271H33.9877H33.28C32.8087 48.5271 32.4267 48.1394 32.4267 47.6612Z" fill="#35291B"/>
<path fill-rule="evenodd" clip-rule="evenodd" d="M43.52 36.4047C43.9913 36.4047 44.3733 36.7924 44.3733 37.2706V37.9887V39.0024C44.3733 39.4806 43.9913 39.8682 43.52 39.8682C43.0487 39.8682 42.6667 39.4806 42.6667 39.0024V37.9887V37.2706C42.6667 36.7924 43.0487 36.4047 43.52 36.4047Z" fill="#35291B"/>
<path fill-rule="evenodd" clip-rule="evenodd" d="M43.52 31.2094C43.9913 31.2094 44.3733 31.5971 44.3733 32.0753V33.089V33.8071C44.3733 34.2853 43.9913 34.6729 43.52 34.6729C43.0487 34.6729 42.6667 34.2853 42.6667 33.8071V33.089V32.0753C42.6667 31.5971 43.0487 31.2094 43.52 31.2094Z" fill="#35291B"/>
<path fill-rule="evenodd" clip-rule="evenodd" d="M44.3733 35.5388C44.3733 35.0606 44.7554 34.6729 45.2267 34.6729H45.9343H46.9333C47.4046 34.6729 47.7867 35.0606 47.7867 35.5388C47.7867 36.017 47.4046 36.4047 46.9333 36.4047H45.9343H45.2267C44.7554 36.4047 44.3733 36.017 44.3733 35.5388Z" fill="#35291B"/>
<path d="M54.6133 33.8071C54.6133 34.2853 54.2313 34.6729 53.76 34.6729C53.2887 34.6729 52.9067 34.2853 52.9067 33.8071C52.9067 33.3288 53.2887 32.9412 53.76 32.9412C54.2313 32.9412 54.6133 33.3288 54.6133 33.8071Z" fill="#35291B"/>
<path fill-rule="evenodd" clip-rule="evenodd" d="M53.76 45.0635C54.2313 45.0635 54.6133 45.4512 54.6133 45.9294V47.6612C54.6133 48.1394 54.2313 48.5271 53.76 48.5271C53.2887 48.5271 52.9067 48.1394 52.9067 47.6612V45.9294C52.9067 45.4512 53.2887 45.0635 53.76 45.0635Z" fill="#35291B"/>
<path d="M54.6133 42.4659C54.6133 42.9441 54.2313 43.3318 53.76 43.3318C53.2887 43.3318 52.9067 42.9441 52.9067 42.4659C52.9067 41.9877 53.2887 41.6 53.76 41.6C54.2313 41.6 54.6133 41.9877 54.6133 42.4659Z" fill="#35291B"/>
<path fill-rule="evenodd" clip-rule="evenodd" d="M13.12 19.2C13.12 17.9629 14.1229 16.96 15.36 16.96H18.56C19.7971 16.96 20.8 17.9629 20.8 19.2V22.4C20.8 23.6371 19.7971 24.64 18.56 24.64H15.36C14.1229 24.64 13.12 23.6371 13.12 22.4V19.2ZM15.36 18.88C15.1833 18.88 15.04 19.0233 15.04 19.2V22.4C15.04 22.5767 15.1833 22.72 15.36 22.72H18.56C18.7367 22.72 18.88 22.5767 18.88 22.4V19.2C18.88 19.0233 18.7367 18.88 18.56 18.88H15.36Z" fill="#35291B"/>
<path fill-rule="evenodd" clip-rule="evenodd" d="M24.32 7.36H16.64C13.6356 7.36 11.2 9.79557 11.2 12.8V33.28H19.52C19.5268 33.28 19.5335 33.2801 19.5403 33.2802C19.7527 29.9434 21.6149 27.055 24.32 25.4217L24.32 7.36ZM13.12 19.2C13.12 17.9629 14.1229 16.96 15.36 16.96H18.56C19.7971 16.96 20.8 17.9629 20.8 19.2V22.4C20.8 23.6371 19.7971 24.64 18.56 24.64H15.36C14.1229 24.64 13.12 23.6371 13.12 22.4V19.2Z" fill="url(#paint0_linear_741_537)"/>
<path d="M24.32 7.36L26.24 7.36C26.24 6.82981 25.8102 6.4 25.28 6.4C24.7498 6.4 24.32 6.82981 24.32 7.36Z" fill="#35291B"/>
<path d="M19.52 35.2C20.0502 35.2 20.48 34.7702 20.48 34.24C20.48 33.7166 20.0611 33.291 19.5403 33.2802C19.5268 33.4917 19.52 33.7051 19.52 33.92V35.2Z" fill="#35291B"/>
<path fill-rule="evenodd" clip-rule="evenodd" d="M9.28 12.8C9.28 8.73519 12.5752 5.44 16.64 5.44H32.64C36.7048 5.44 40 8.73519 40 12.8V24.96C40 25.4902 39.5702 25.92 39.04 25.92H29.44C25.0217 25.92 21.44 29.5017 21.44 33.92V44.8C21.44 45.3302 21.0102 45.76 20.48 45.76H16.64C12.5752 45.76 9.28 42.4648 9.28 38.4V12.8ZM19.52 43.84V35.2C20.0502 35.2 20.48 34.7702 20.48 34.24C20.48 33.7166 20.0611 33.291 19.5403 33.2802C19.7527 29.9434 21.6149 27.055 24.32 25.4217L24.32 7.36L26.24 7.36L26.24 24.5275C27.244 24.1855 28.3203 24 29.44 24H38.08V12.8C38.08 9.79557 35.6444 7.36 32.64 7.36L26.24 7.36C26.24 6.82981 25.8102 6.4 25.28 6.4C24.7498 6.4 24.32 6.82981 24.32 7.36H16.64C13.6356 7.36 11.2 9.79557 11.2 12.8V33.28C10.6698 33.28 10.24 33.7098 10.24 34.24C10.24 34.7702 10.6698 35.2 11.2 35.2V38.4C11.2 41.4044 13.6356 43.84 16.64 43.84H19.52ZM11.2 35.2V33.28H19.52L19.5403 33.2802C19.5268 33.4917 19.52 33.7051 19.52 33.92V35.2H11.2Z" fill="#35291B"/>
<path d="M38.08 12.8C38.08 9.79557 35.6444 7.36 32.64 7.36L26.24 7.36L26.24 24.5275C27.244 24.1855 28.3203 24 29.44 24H38.08V12.8Z" fill="url(#paint1_linear_741_537)"/>
<path d="M11.2 35.2V38.4C11.2 41.4044 13.6356 43.84 16.64 43.84H19.52V35.2H11.2Z" fill="url(#paint2_linear_741_537)"/>
<path fill-rule="evenodd" clip-rule="evenodd" d="M24.7467 34.6729C24.7467 31.3254 27.421 28.6118 30.72 28.6118H51.2C54.499 28.6118 57.1733 31.3254 57.1733 34.6729V48.5271C57.1733 51.8746 54.499 54.5882 51.2 54.5882H30.72C27.421 54.5882 24.7467 51.8746 24.7467 48.5271V34.6729ZM26.4533 35.5388C26.4533 32.6695 28.7456 30.3435 31.5733 30.3435C34.401 30.3435 36.6933 32.6695 36.6933 35.5388C36.6933 38.4081 34.401 40.7341 31.5733 40.7341C28.7456 40.7341 26.4533 38.4081 26.4533 35.5388ZM35.84 47.6612C35.84 50.0522 33.9298 51.9906 31.5733 51.9906C29.2169 51.9906 27.3067 50.0522 27.3067 47.6612C27.3067 45.2701 29.2169 43.3318 31.5733 43.3318C33.9298 43.3318 35.84 45.2701 35.84 47.6612ZM47.7867 35.5388C47.7867 37.9299 45.8764 39.8682 43.52 39.8682C41.1636 39.8682 39.2533 37.9299 39.2533 35.5388C39.2533 33.1478 41.1636 31.2094 43.52 31.2094C45.8764 31.2094 47.7867 33.1478 47.7867 35.5388ZM53.76 36.4047C54.2313 36.4047 54.6133 36.7924 54.6133 37.2706V39.0024C54.6133 39.4806 54.2313 39.8682 53.76 39.8682C53.2887 39.8682 52.9067 39.4806 52.9067 39.0024V37.2706C52.9067 36.7924 53.2887 36.4047 53.76 36.4047ZM38.4 47.6612C38.4 44.7919 40.6923 42.4659 43.52 42.4659C46.3477 42.4659 48.64 44.7919 48.64 47.6612C48.64 50.5305 46.3477 52.8565 43.52 52.8565C40.6923 52.8565 38.4 50.5305 38.4 47.6612ZM53.76 34.6729C54.2313 34.6729 54.6133 34.2853 54.6133 33.8071C54.6133 33.3288 54.2313 32.9412 53.76 32.9412C53.2887 32.9412 52.9067 33.3288 52.9067 33.8071C52.9067 34.2853 53.2887 34.6729 53.76 34.6729ZM53.76 45.0635C54.2313 45.0635 54.6133 45.4512 54.6133 45.9294V47.6612C54.6133 48.1394 54.2313 48.5271 53.76 48.5271C53.2887 48.5271 52.9067 48.1394 52.9067 47.6612V45.9294C52.9067 45.4512 53.2887 45.0635 53.76 45.0635ZM53.76 43.3318C54.2313 43.3318 54.6133 42.9441 54.6133 42.4659C54.6133 41.9877 54.2313 41.6 53.76 41.6C53.2887 41.6 52.9067 41.9877 52.9067 42.4659C52.9067 42.9441 53.2887 43.3318 53.76 43.3318Z" fill="url(#paint3_linear_741_537)"/>
<path fill-rule="evenodd" clip-rule="evenodd" d="M28.2675 34.6729C28.5763 33.4559 29.5205 32.4977 30.72 32.1844V33.8071C30.72 34.2853 31.1021 34.6729 31.5733 34.6729C32.0446 34.6729 32.4267 34.2853 32.4267 33.8071V32.1844C33.6261 32.4977 34.5704 33.4559 34.8791 34.6729C34.9493 34.9497 34.9867 35.2398 34.9867 35.5388C34.9867 35.8378 34.9493 36.128 34.8791 36.4047C34.5704 37.6218 33.6261 38.58 32.4267 38.8932C32.1539 38.9645 31.868 39.0024 31.5733 39.0024C31.2787 39.0024 30.9927 38.9645 30.72 38.8932C29.5205 38.58 28.5763 37.6218 28.2675 36.4047C28.1973 36.128 28.16 35.8378 28.16 35.5388C28.16 35.2398 28.1973 34.9497 28.2675 34.6729ZM32.4267 32.1844V32.0753C32.4267 31.5971 32.0446 31.2094 31.5733 31.2094C31.1021 31.2094 30.72 31.5971 30.72 32.0753V32.1844C30.9927 32.1132 31.2787 32.0753 31.5733 32.0753C31.868 32.0753 32.1539 32.1132 32.4267 32.1844ZM31.5733 30.3435C28.7456 30.3435 26.4533 32.6695 26.4533 35.5388C26.4533 38.4081 28.7456 40.7341 31.5733 40.7341C34.401 40.7341 36.6933 38.4081 36.6933 35.5388C36.6933 32.6695 34.401 30.3435 31.5733 30.3435Z" fill="#35291B"/>
<path d="M32.4267 32.0753C32.4267 31.5971 32.0446 31.2094 31.5733 31.2094C31.1021 31.2094 30.72 31.5971 30.72 32.0753V32.1844C30.9927 32.1132 31.2787 32.0753 31.5733 32.0753C31.868 32.0753 32.1539 32.1132 32.4267 32.1844V32.0753Z" fill="#35291B"/>
<path fill-rule="evenodd" clip-rule="evenodd" d="M31.5733 51.9906C33.9298 51.9906 35.84 50.0522 35.84 47.6612C35.84 45.2701 33.9298 43.3318 31.5733 43.3318C29.2169 43.3318 27.3067 45.2701 27.3067 47.6612C27.3067 50.0522 29.2169 51.9906 31.5733 51.9906ZM29.159 46.7953H28.16C27.6887 46.7953 27.3067 47.183 27.3067 47.6612C27.3067 48.1394 27.6887 48.5271 28.16 48.5271H29.159C29.4161 49.2651 29.9926 49.8501 30.72 50.111C30.9869 50.2067 31.2741 50.2588 31.5733 50.2588C31.8725 50.2588 32.1598 50.2067 32.4267 50.111C33.1541 49.8501 33.7306 49.2651 33.9877 48.5271C34.082 48.2562 34.1333 47.9648 34.1333 47.6612C34.1333 47.3576 34.082 47.0661 33.9877 46.7953C33.7306 46.0572 33.1541 45.4722 32.4267 45.2113C32.1598 45.1156 31.8725 45.0635 31.5733 45.0635C31.2741 45.0635 30.9869 45.1156 30.72 45.2113C29.9926 45.4722 29.4161 46.0572 29.159 46.7953ZM29.159 46.7953C29.0647 47.0661 29.0133 47.3576 29.0133 47.6612C29.0133 47.9648 29.0647 48.2562 29.159 48.5271H29.8667C30.338 48.5271 30.72 48.1394 30.72 47.6612C30.72 47.183 30.338 46.7953 29.8667 46.7953H29.159Z" fill="#35291B"/>
<path d="M28.16 46.7953C27.6887 46.7953 27.3067 47.183 27.3067 47.6612C27.3067 48.1394 27.6887 48.5271 28.16 48.5271H29.159C29.0647 48.2562 29.0133 47.9648 29.0133 47.6612C29.0133 47.3576 29.0647 47.0661 29.159 46.7953H28.16Z" fill="#35291B"/>
<path fill-rule="evenodd" clip-rule="evenodd" d="M40.2142 46.7953C40.5229 45.5782 41.4672 44.62 42.6667 44.3068V45.9294C42.6667 46.4076 43.0487 46.7953 43.52 46.7953C43.9913 46.7953 44.3733 46.4076 44.3733 45.9294V44.3068C45.5728 44.62 46.5171 45.5782 46.8258 46.7953C46.896 47.072 46.9333 47.3622 46.9333 47.6612C46.9333 47.9602 46.896 48.2503 46.8258 48.5271C46.5171 49.7442 45.5728 50.7023 44.3733 51.0156C44.1006 51.0868 43.8147 51.1247 43.52 51.1247C43.2253 51.1247 42.9394 51.0868 42.6667 51.0156C41.4672 50.7023 40.5229 49.7442 40.2142 48.5271C40.144 48.2503 40.1067 47.9602 40.1067 47.6612C40.1067 47.3622 40.144 47.072 40.2142 46.7953ZM44.3733 44.3068V44.1976C44.3733 43.7194 43.9913 43.3318 43.52 43.3318C43.0487 43.3318 42.6667 43.7194 42.6667 44.1976V44.3068C42.9394 44.2355 43.2253 44.1976 43.52 44.1976C43.8147 44.1976 44.1006 44.2355 44.3733 44.3068ZM43.52 42.4659C40.6923 42.4659 38.4 44.7919 38.4 47.6612C38.4 50.5305 40.6923 52.8565 43.52 52.8565C46.3477 52.8565 48.64 50.5305 48.64 47.6612C48.64 44.7919 46.3477 42.4659 43.52 42.4659Z" fill="#35291B"/>
<path d="M44.3733 44.1976C44.3733 43.7194 43.9913 43.3318 43.52 43.3318C43.0487 43.3318 42.6667 43.7194 42.6667 44.1976V44.3068C42.9394 44.2355 43.2253 44.1976 43.52 44.1976C43.8147 44.1976 44.1006 44.2355 44.3733 44.3068V44.1976Z" fill="#35291B"/>
<path fill-rule="evenodd" clip-rule="evenodd" d="M43.52 39.8682C45.8764 39.8682 47.7867 37.9299 47.7867 35.5388C47.7867 33.1478 45.8764 31.2094 43.52 31.2094C41.1636 31.2094 39.2533 33.1478 39.2533 35.5388C39.2533 37.9299 41.1636 39.8682 43.52 39.8682ZM41.1057 34.6729H40.1067C39.6354 34.6729 39.2533 35.0606 39.2533 35.5388C39.2533 36.017 39.6354 36.4047 40.1067 36.4047H41.1057C41.3628 37.1428 41.9393 37.7278 42.6667 37.9887C42.9336 38.0844 43.2208 38.1365 43.52 38.1365C43.8192 38.1365 44.1064 38.0844 44.3733 37.9887C45.1007 37.7278 45.6772 37.1428 45.9343 36.4047C46.0287 36.1339 46.08 35.8424 46.08 35.5388C46.08 35.2352 46.0287 34.9438 45.9343 34.6729C45.6772 33.9349 45.1007 33.3499 44.3733 33.089C44.1064 32.9933 43.8192 32.9412 43.52 32.9412C43.2208 32.9412 42.9336 32.9933 42.6667 33.089C41.9393 33.3499 41.3628 33.9349 41.1057 34.6729ZM41.1057 34.6729C41.0113 34.9438 40.96 35.2352 40.96 35.5388C40.96 35.8424 41.0113 36.1339 41.1057 36.4047H41.8133C42.2846 36.4047 42.6667 36.017 42.6667 35.5388C42.6667 35.0606 42.2846 34.6729 41.8133 34.6729H41.1057Z" fill="#35291B"/>
<path d="M40.1067 34.6729C39.6354 34.6729 39.2533 35.0606 39.2533 35.5388C39.2533 36.017 39.6354 36.4047 40.1067 36.4047H41.1057C41.0113 36.1339 40.96 35.8424 40.96 35.5388C40.96 35.2352 41.0113 34.9438 41.1057 34.6729H40.1067Z" fill="#35291B"/>
<path d="M11.2 35.2V33.28C10.6698 33.28 10.24 33.7098 10.24 34.24C10.24 34.7702 10.6698 35.2 11.2 35.2Z" fill="#35291B"/>
<defs>
<linearGradient id="paint0_linear_741_537" x1="9.28" y1="56.32" x2="60.2943" y2="6.89991" gradientUnits="userSpaceOnUse">
<stop stop-color="#B5E48C"/>
<stop offset="1" stop-color="#FFD364"/>
</linearGradient>
<linearGradient id="paint1_linear_741_537" x1="9.28" y1="56.32" x2="60.2943" y2="6.89991" gradientUnits="userSpaceOnUse">
<stop stop-color="#B5E48C"/>
<stop offset="1" stop-color="#FFD364"/>
</linearGradient>
<linearGradient id="paint2_linear_741_537" x1="9.28" y1="56.32" x2="60.2943" y2="6.89991" gradientUnits="userSpaceOnUse">
<stop stop-color="#B5E48C"/>
<stop offset="1" stop-color="#FFD364"/>
</linearGradient>
<linearGradient id="paint3_linear_741_537" x1="9.28" y1="56.32" x2="60.2943" y2="6.89991" gradientUnits="userSpaceOnUse">
<stop stop-color="#B5E48C"/>
<stop offset="1" stop-color="#FFD364"/>
</linearGradient>
</defs>
</svg>
