<svg width="64" height="64" viewBox="0 0 64 64" fill="none" xmlns="http://www.w3.org/2000/svg">
<path d="M13.3333 50.9639C13.3333 44.529 17.8595 39.0479 24.0108 38.0337L24.5649 37.9424C29.4905 37.1303 34.5096 37.1303 39.4352 37.9424L39.9892 38.0337C46.1405 39.0479 50.6667 44.529 50.6667 50.9639C50.6667 53.7453 48.4841 56 45.7917 56H18.2084C15.516 56 13.3333 53.7453 13.3333 50.9639Z" fill="url(#paint0_linear_774_384)"/>
<path d="M42.889 18.5C42.889 24.299 38.0138 29 32.0001 29C25.9863 29 21.1112 24.299 21.1112 18.5C21.1112 12.701 25.9863 8 32.0001 8C38.0138 8 42.889 12.701 42.889 18.5Z" fill="url(#paint1_linear_774_384)"/>
<path d="M24.5649 37.9424L24.3615 36.709L24.3615 36.709L24.5649 37.9424ZM39.4352 37.9424L39.6385 36.709L39.6385 36.709L39.4352 37.9424ZM39.9892 38.0337L39.7859 39.2671L39.7859 39.2671L39.9892 38.0337ZM24.0108 38.0337L24.2141 39.2671L24.2141 39.2671L24.0108 38.0337ZM24.2141 39.2671L24.7682 39.1757L24.3615 36.709L23.8074 36.8004L24.2141 39.2671ZM39.2318 39.1757L39.7859 39.2671L40.1926 36.8004L39.6385 36.709L39.2318 39.1757ZM45.7917 54.75H18.2084V57.25H45.7917V54.75ZM24.7682 39.1757C29.5591 38.3859 34.4409 38.3859 39.2318 39.1757L39.6385 36.709C34.5782 35.8748 29.4218 35.8748 24.3615 36.709L24.7682 39.1757ZM12.0833 50.9639C12.0833 54.397 14.7876 57.25 18.2084 57.25V54.75C16.2443 54.75 14.5833 53.0935 14.5833 50.9639H12.0833ZM49.4167 50.9639C49.4167 53.0935 47.7557 54.75 45.7917 54.75V57.25C49.2124 57.25 51.9167 54.397 51.9167 50.9639H49.4167ZM51.9167 50.9639C51.9167 43.9467 46.9763 37.9188 40.1926 36.8004L39.7859 39.2671C45.3047 40.177 49.4167 45.1113 49.4167 50.9639H51.9167ZM14.5833 50.9639C14.5833 45.1113 18.6954 40.177 24.2141 39.2671L23.8074 36.8004C17.0237 37.9188 12.0833 43.9467 12.0833 50.9639H14.5833ZM41.639 18.5C41.639 23.5662 37.3667 27.75 32.0001 27.75V30.25C38.661 30.25 44.139 25.0318 44.139 18.5H41.639ZM32.0001 27.75C26.6334 27.75 22.3612 23.5662 22.3612 18.5H19.8612C19.8612 25.0318 25.3392 30.25 32.0001 30.25V27.75ZM22.3612 18.5C22.3612 13.4338 26.6334 9.25 32.0001 9.25V6.75C25.3392 6.75 19.8612 11.9682 19.8612 18.5H22.3612ZM32.0001 9.25C37.3667 9.25 41.639 13.4338 41.639 18.5H44.139C44.139 11.9682 38.661 6.75 32.0001 6.75V9.25Z" fill="#35291B"/>
<defs>
<linearGradient id="paint0_linear_774_384" x1="13.3333" y1="56" x2="60.2667" y2="20.8" gradientUnits="userSpaceOnUse">
<stop stop-color="#B5E48C"/>
<stop offset="1" stop-color="#FFD364"/>
</linearGradient>
<linearGradient id="paint1_linear_774_384" x1="13.3333" y1="56" x2="60.2667" y2="20.8" gradientUnits="userSpaceOnUse">
<stop stop-color="#B5E48C"/>
<stop offset="1" stop-color="#FFD364"/>
</linearGradient>
</defs>
</svg>
