<svg width="64" height="64" viewBox="0 0 64 64" fill="none" xmlns="http://www.w3.org/2000/svg">
<path d="M8.94101 23.8678C10.6783 16.4614 16.4614 10.6783 23.8678 8.941C29.2167 7.68633 34.7833 7.68633 40.1322 8.941C47.5387 10.6783 53.3217 16.4614 55.059 23.8678C56.3137 29.2167 56.3137 34.7833 55.059 40.1322C53.3217 47.5387 47.5387 53.3217 40.1322 55.059C34.7833 56.3137 29.2167 56.3137 23.8678 55.059C16.4614 53.3217 10.6783 47.5387 8.94101 40.1322C7.68633 34.7833 7.68633 29.2167 8.94101 23.8678Z" fill="url(#paint0_linear_743_545)"/>
<path d="M8.94101 40.1322L7.72404 40.4177L8.94101 40.1322ZM8.94101 23.8678L7.72404 23.5824L8.94101 23.8678ZM55.059 23.8678L53.842 24.1533L53.842 24.1533L55.059 23.8678ZM55.059 40.1322L53.842 39.8467L55.059 40.1322ZM40.1322 55.059L39.8467 53.842L39.8467 53.842L40.1322 55.059ZM23.8678 55.059L24.1533 53.842L23.8678 55.059ZM23.8678 8.941L24.1533 10.158L23.8678 8.941ZM40.1322 8.941L39.8467 10.158L40.1322 8.941ZM20.4006 24.181C19.9125 23.6928 19.121 23.6928 18.6328 24.181C18.1447 24.6691 18.1447 25.4606 18.6328 25.9487L20.4006 24.181ZM22.2908 27.8389L21.4069 28.7228C21.8951 29.2109 22.6865 29.2109 23.1747 28.7228L22.2908 27.8389ZM28.7228 23.1747C29.2109 22.6865 29.2109 21.8951 28.7228 21.4069C28.2346 20.9187 27.4432 20.9187 26.955 21.4069L28.7228 23.1747ZM34.7741 25.2019C34.0837 25.2019 33.5241 25.7615 33.5241 26.4519C33.5241 27.1422 34.0837 27.7019 34.7741 27.7019V25.2019ZM44.4833 27.7019C45.1736 27.7019 45.7333 27.1422 45.7333 26.4519C45.7333 25.7615 45.1736 25.2019 44.4833 25.2019V27.7019ZM20.4006 38.0513C19.9125 37.5631 19.121 37.5631 18.6328 38.0513C18.1447 38.5394 18.1447 39.3309 18.6328 39.819L20.4006 38.0513ZM22.2908 41.7092L21.4069 42.5931C21.8951 43.0813 22.6865 43.0813 23.1747 42.5931L22.2908 41.7092ZM28.7228 37.045C29.2109 36.5568 29.2109 35.7654 28.7228 35.2772C28.2346 34.7891 27.4432 34.7891 26.955 35.2772L28.7228 37.045ZM34.7741 39.0722C34.0837 39.0722 33.5241 39.6318 33.5241 40.3222C33.5241 41.0125 34.0837 41.5722 34.7741 41.5722V39.0722ZM44.4833 41.5722C45.1736 41.5722 45.7333 41.0125 45.7333 40.3222C45.7333 39.6318 45.1736 39.0722 44.4833 39.0722V41.5722ZM10.158 39.8467C8.94734 34.6856 8.94734 29.3144 10.158 24.1533L7.72404 23.5824C6.42532 29.119 6.42532 34.881 7.72404 40.4177L10.158 39.8467ZM53.842 24.1533C55.0527 29.3144 55.0527 34.6856 53.842 39.8467L56.276 40.4176C57.5747 34.881 57.5747 29.119 56.276 23.5824L53.842 24.1533ZM39.8467 53.842C34.6856 55.0527 29.3144 55.0527 24.1533 53.842L23.5824 56.276C29.119 57.5747 34.881 57.5747 40.4176 56.276L39.8467 53.842ZM24.1533 10.158C29.3144 8.94734 34.6856 8.94734 39.8467 10.158L40.4176 7.72404C34.881 6.42532 29.119 6.42532 23.5824 7.72404L24.1533 10.158ZM24.1533 53.842C17.209 52.2131 11.7869 46.791 10.158 39.8467L7.72404 40.4177C9.56978 48.2863 15.7137 54.4302 23.5824 56.276L24.1533 53.842ZM40.4176 56.276C48.2863 54.4302 54.4302 48.2863 56.276 40.4176L53.842 39.8467C52.2131 46.791 46.791 52.2131 39.8467 53.842L40.4176 56.276ZM39.8467 10.158C46.791 11.7869 52.2131 17.209 53.842 24.1533L56.276 23.5824C54.4302 15.7137 48.2863 9.56977 40.4176 7.72404L39.8467 10.158ZM23.5824 7.72404C15.7137 9.56977 9.56978 15.7137 7.72404 23.5824L10.158 24.1533C11.7869 17.209 17.209 11.7869 24.1533 10.158L23.5824 7.72404ZM18.6328 25.9487L21.4069 28.7228L23.1747 26.955L20.4006 24.181L18.6328 25.9487ZM23.1747 28.7228L28.7228 23.1747L26.955 21.4069L21.4069 26.955L23.1747 28.7228ZM34.7741 27.7019H44.4833V25.2019H34.7741V27.7019ZM18.6328 39.819L21.4069 42.5931L23.1747 40.8253L20.4006 38.0513L18.6328 39.819ZM23.1747 42.5931L28.7228 37.045L26.955 35.2772L21.4069 40.8253L23.1747 42.5931ZM34.7741 41.5722H44.4833V39.0722H34.7741V41.5722Z" fill="#35291B"/>
<defs>
<linearGradient id="paint0_linear_743_545" x1="8" y1="56" x2="57.4969" y2="9.59667" gradientUnits="userSpaceOnUse">
<stop stop-color="#B5E48C"/>
<stop offset="1" stop-color="#FFD364"/>
</linearGradient>
</defs>
</svg>
